<svg id="Layer_1" data-name="Layer 1" xmlns="http://www.w3.org/2000/svg" viewBox="0 0 2000 1025.64"><defs><style>.cls-1{fill:#e80c12;}</style></defs><title>Zakvan-red</title><polygon class="cls-1" points="1994.68 646.49 6.85 967.49 4.07 913.79 1991.89 592.54 1994.68 646.49"/><path class="cls-1" d="M1081.42,852.73l34.58-5.3q15.9-2.43,25.06,5.11t8.83,25.71L1148,978.94q-.69,36.12-35.26,41.4l-34.58,5.3ZM1112.56,1002a17.77,17.77,0,0,0,10.94-6c2.92-3.31,4.43-8.06,4.56-14.29l1.9-100.44c.11-6.06-1.22-10.34-4-12.87a12.31,12.31,0,0,0-10.53-2.79l-14.12,2.16-2.59,136.31Z" transform="translate(0)"/><path class="cls-1" d="M1336.77,951.75l-28.53,4.36-4.43,35-20,3.06,25-176.24,31.81-4.87,19.45,169.43-19.95,3.06Zm-1.92-18.32-10-98.64-1.26.2-13,102.15Z" transform="translate(0)"/><path class="cls-1" d="M1569.25,915.65q-.36,19.43-10.13,29.85t-26.17,13l-1.26.2q-16.15,2.46-25.58-5t-9.06-26.91l2-105.1q.35-18.18,10.11-28.49t25.9-12.79l1.27-.2q16.17-2.46,25.71,5.12c6.34,5.1,9.42,14,9.17,26.78l-.43,23.33-20.44,3.14.47-24.81c.11-6.4-1.29-10.83-4.16-13.34s-6.61-3.39-11.15-2.69l-.25,0a17.91,17.91,0,0,0-11.19,6.12q-4.39,5.09-4.57,14.67l-2,105.1c-.12,6.24,1.23,10.59,4,13.11s6.39,3.43,10.77,2.76l.75-.12a18.16,18.16,0,0,0,11.19-6q4.38-5,4.57-14.55l.56-30.2,20.45-3.13Z" transform="translate(0)"/><path class="cls-1" d="M1781,883.22q-.36,19.42-10.13,29.85T1744.73,926l-1.26.19q-16.14,2.46-25.57-5t-9.06-26.91l2-105.11q.35-18.18,10.11-28.49t25.9-12.8l1.27-.18c10.75-1.66,19.32.07,25.71,5.12s9.42,14,9.17,26.77l-.43,23.34-20.46,3.12.47-24.8c.12-6.4-1.28-10.84-4.15-13.33s-6.62-3.39-11.14-2.7l-.26,0a17.78,17.78,0,0,0-11.19,6.11c-2.94,3.4-4.46,8.28-4.57,14.68l-2,105.1c-.11,6.23,1.24,10.58,4,13.1s6.4,3.42,10.77,2.75l.76-.11a18,18,0,0,0,11.19-6q4.38-4.95,4.55-14.54l.58-30.2,20.46-3.13Z" transform="translate(0)"/><path class="cls-1" d="M1969.58,854.84l-28.53,4.37-4.44,35-19.95,3.05,25-176.23,31.81-4.86,19.44,169.42-20,3.05Zm-1.93-18.31-10-98.64-1.26.2-13,102.15Z" transform="translate(0)"/><path class="cls-1" d="M1.15,772.78,206.14,185,26,214.13l1.16-80.42L286.48,91.8l-1.13,79.4-204,587.6,208.87-32.73-1.15,80.43L0,853.21Z" transform="translate(0)"/><path class="cls-1" d="M587.59,239.2q38.22,19.23,38.32,81.16L619.7,753.09l-75.22,12.14.49-34.62a126,126,0,0,1-40.57,39.57Q479,786,452.26,790.29q-57.43,9.27-84.69-17.81T341.35,672.1l.8-55q.51-35.62,16.69-62.12T398,511.58q23-16.89,58.8-36.91,42.83-25.2,62.85-43.68t20.43-46l.63-43.76q.46-32.58-12.24-42.22t-35.48-6q-49.49,8-50.3,64l-1,69.22-80.18,13,1-70.25q.9-62.08,38.42-96.62t89-42.81Q549.34,220,587.59,239.2Zm-46,246.14a445.49,445.49,0,0,1-45.89,31.79q-37.89,24.42-55.92,42.57t-18.42,44.62l-.86,60.08q-.9,62.1,58.51,52.5,25.74-4.15,42.78-22.14t17.56-53.64Z" transform="translate(0)"/><path class="cls-1" d="M714.15,22.71l79.19-12.8-6.43,378.91,2-.32L891.68,176.87l79.2-12.79-116,239.17L966.19,697.1,887,709.9,801.18,495.2l-19.24,33.6-1.86,198.37-76.22,12.32Z" transform="translate(0)"/><path class="cls-1" d="M1030.28,154.47l75.24-12.14,56.65,456.08,2-.32,69.07-476.4,75.24-12.16-86.85,546.31-119.78,19.35Z" transform="translate(0)"/><path class="cls-1" d="M1601.31,75.41q38.24,19.25,38.33,81.18l-6.21,432.72-75.23,12.14.5-34.63a126.15,126.15,0,0,1-40.58,39.58q-25.41,15.78-52.14,20.1-57.42,9.3-84.68-17.79t-26.22-100.39l.79-55q.53-35.61,16.7-62.11t39.14-43.41q23-16.92,58.8-36.93,42.81-25.19,62.85-43.66t20.43-46l.63-43.77q.46-32.57-12.25-42.22c-8.48-6.4-20.29-8.41-35.47-5.94q-49.5,8-50.3,64l-1,69.23-80.19,13,1-70.25q.88-62.09,38.43-96.62t89-42.82Q1563.05,56.22,1601.31,75.41Zm-46,246.15a450.22,450.22,0,0,1-45.91,31.79q-37.87,24.42-55.92,42.57t-18.41,44.62l-.87,60.07q-.89,62.11,58.52,52.51Q1518.44,549,1535.5,531t17.57-53.63Z" transform="translate(0)"/><path class="cls-1" d="M1976.44,17.85q24.33,24.54,23.53,81.54l-6.19,431.69-78.2,12.64,5.84-407.27Q1922,99.82,1909.78,86c-8.11-9.18-21-12.34-38.86-9.46s-33.59,11.7-47.29,26.44-20.76,34.69-21.11,59.78l-5.74,400.15-79.2,12.78,7.66-533.5,53.46-8.64,4.07,60.28q10.37-35.19,41.35-60t71.57-31.35Q1952.12-6.65,1976.44,17.85Z" transform="translate(0)"/></svg>