<?xml version="1.0" encoding="utf-8"?>
<!-- Generator: Adobe Illustrator 23.0.1, SVG Export Plug-In . SVG Version: 6.00 Build 0)  -->
<svg version="1.1" id="Layer_1" xmlns="http://www.w3.org/2000/svg" xmlns:xlink="http://www.w3.org/1999/xlink" x="0px" y="0px"
	 viewBox="0 0 1920 935" style="enable-background:new 0 0 1920 935;" xml:space="preserve">
<style type="text/css">
	.st0{fill:#B40404;}
	.st1{fill:#1A1A1A;}
	.st2{fill:#FFFFFF;}
</style>
<g>
	<path class="st0" d="M694.1,38.9c7,1.4,8.3,6.7,9.2,12.7c0.8,5.1,2.6,10,3.4,15c0.6,4.3,3.2,4,6.3,3.6c6.6-1.1,13.1-2.4,19.8-3.1
		c2-0.2,5.1,0.5,6,1.8c2,3-0.3,5.2-3.2,6c-6.3,1.7-12.7,3.1-19,4.6c-2.1,0.5-4.1,0.8-7.1,1.5c1.3,8.2,2.5,16.2,3.7,24.1
		c0.2,1.1,0.5,2.1,0.5,3.1c0.1,2.2,2.6,5.3-2.1,5.9c-4.9,0.7-6.6-0.3-7.5-4.6c-1.6-7.6-3.2-15.1-4.6-22.7c-0.5-2.8-1.8-3.6-4.7-3
		c-6.7,1.5-13.4,2.7-20.1,3.6c-2.5,0.3-6.3,2.2-7.3-2.1c-0.9-4.1,2.3-5.6,5.6-6.4c6.7-1.5,13.3-2.9,20-4.3c3-0.6,4.6-1.5,3.8-5.5
		c-1.7-8.3-2.9-16.7-4.1-25.1c-0.3-1.7,0.4-3.6,0.5-5.3C693.5,38.9,693.8,38.9,694.1,38.9z"/>
	<path class="st1" d="M749.7,534.6c-7.3,2.3-14.8,3.6-22.3,1.2c-1.5-0.5-3-3.2-3.2-5c-0.6-5.7-1.2-11.6-0.7-17.2
		c3.1-32.9,6.3-65.9,9.8-98.7c1.5-13.1,5.6-16.9,18.6-18.9c7-1,14.2-1.3,21.3-1.7c5.9-0.4,11.8-0.4,17.8-0.8
		c6.1-0.5,8.6-2.9,8.7-8.9c0.3-22.6,8-43.2,18.2-62.8c20-38.2,51.1-64.1,92-76.6c63.5-19.4,118.6-3.5,164.2,44.6
		c25.3,26.7,39,58.9,42,95.7c0.2,2.5,0.6,4.8,1,7.7c7.6,0.4,15,0.7,22.6,1.1c7.9,0.4,15.8,0.5,23.7,1.1c10.2,0.6,15.3,4.3,17.1,14.4
		c2.2,11.8,3.5,23.7,4.6,35.6c2.7,29.3,5.2,58.7,7.8,88c2.6,28.4,5.2,56.9,7.7,85.3c2.9,32.8,5.9,65.6,8.7,98.4
		c2.6,31.2,5.2,62.3,7.7,93.5c0.5,6.3-0.5,8.4-6.7,9.3c-11.6,1.6-23.1,3.4-34.8,3.4c-115.7,0.5-231.4,0.5-347.1,0.7
		c-39.6,0.1-79.3,0-118.9,0c-6.6,0-9.8-2.1-10.8-8.7c-0.9-5.4-1.2-10.9-0.6-16.3c2.7-30.3,5.8-60.7,8.7-91.1
		c0.1-1.2,0.4-2.4,0.6-3.6c1.8-9.4,2.7-10.3,12.2-9.8c4.2,0.2,8.4,1.3,12.4,2.5c1.2,0.4,2.8,2.3,2.7,3.4c-0.1,1.3-1.8,3.2-3,3.4
		c-3.2,0.5-6.7,0.6-9.8,0.2c-5.5-0.7-6.3-0.5-6.7,4.8c-2.7,32.3-5.6,64.7-8.2,97.1c-0.5,6.8-0.4,7,6.3,7.1
		c163.3,0.5,326.4,1.2,489.6,1.7c1.2,0,2.4-0.1,3.6-0.2c0-6.6,0.5-12.9-0.1-19.2c-3.1-38.5-6.3-77.2-9.7-115.7
		c-4-44.7-8.3-89.5-12.4-134.2c-3.2-34.9-6.2-69.8-9.6-104.8c-0.8-9-2.1-18-3.6-27.1c-1-6.1-2.8-7.7-9.2-8
		c-12.4-0.6-24.9-0.8-37.3-1.5c-10.6-0.5-18-8.4-19-19c-4.6-49.1-28-87.2-68.9-114.3c-29.1-19.2-61.3-26.7-95.8-22.6
		c-35.1,4.2-64.5,19.7-89.9,44.6c-25.6,25.1-38.2,55.6-42.5,90.3c-0.2,1.2-0.3,2.4-0.5,3.6c-2.5,14.1-6,17.2-20.5,17.7
		c-10.3,0.4-20.6,0.6-31,1c-1.5,0.1-3,0.5-4.5,0.7c-7.6,1.7-10.1,4.6-11,12.3c-1.2,10.4-2.4,20.8-3.3,31.2
		c-2.1,23.7-4,47.5-5.9,71.2c-0.6,7.8,0.5,8.6,8.4,9.6c3.1,0.4,6.2,1.5,9.2,2.3C749.9,533.2,749.8,533.9,749.7,534.6z"/>
	<path class="st1" d="M452.5,677.3c-38.7,0-77.4,0.1-116.1-0.1c-6,0-12.1-0.9-18.1-1.5c-4.6-0.5-7.8-3.2-8.7-7.5
		c-0.9-4-1.4-8.5-0.6-12.5c0.4-2.2,3.5-5.1,5.6-5.5c8.9-1.6,17.9-3.4,27-3.4c69.3-0.3,138.8-0.2,208.1-0.1c11.8,0,23.7,0.5,35.4,1.3
		c6.7,0.4,10.9,5.8,11.2,13.2c0.3,7.3-4.1,13.9-10.5,14.4c-12.8,1-25.8,1.6-38.6,1.8c-31.5,0.3-63.1,0.1-94.8,0.1
		C452.5,677.6,452.5,677.4,452.5,677.3z"/>
	<path class="st1" d="M1467.1,652.3c44.2,0,88.3,0,132.5,0.1c2.4,0,5.7,0.5,6.7,1.9c2.9,4.4,7,8.8,4.7,14.9
		c-0.9,2.4-2.5,4.6-3.5,6.9c-1.2,2.8-3.2,3.4-6.1,3.4c-45.4,0.2-90.7,0.6-136.1,0.6c-41.9,0-83.7-0.5-125.6-0.9
		c-2.6,0-5.2-0.6-7.7-0.5c-5.2,0.2-7.4-2.7-8.3-7.3c-0.4-1.6-0.5-3.3-0.6-4.9c-0.6-10,2-13.4,12-13.6c38.1-0.5,76.2-0.7,114.2-1.1
		c5.9-0.1,11.8,0,17.8,0C1467.1,651.9,1467.1,652.1,1467.1,652.3z"/>
	<path class="st1" d="M957.3,403.5c-33.1,0-66.1,0-99.3,0c-4.4,0-8.8-0.5-13.1-1c-8.7-1.1-14-7.1-12.4-15.8
		c1.5-7.7,3.8-15.5,7.6-22.2c28.2-49.9,76-75.9,132-68.9c51.6,6.5,89.2,34.3,109.1,83.7c5.1,12.7-0.2,22.2-13.7,23.3
		c-15.1,1.2-30.3,1.3-45.5,1.5c-21.6,0.2-43.1,0.1-64.7,0.1C957.3,403.8,957.3,403.6,957.3,403.5z M953.3,393.4L953.3,393.4
		c22.3,0,44.6,0.2,66.9-0.1c15.6-0.2,31.2-1.1,46.8-1.8c5.9-0.3,7.5-2.4,5.6-7.8c-1.7-5-3.8-9.9-6.4-14.5
		c-26.9-48.6-79.8-74.1-133.2-63c-39.4,8.2-68.5,31-86.6,67.3c-1.7,3.5-3.1,7.3-3.8,11.1c-1.4,7.1-0.3,8.1,6.9,8.6
		c2.1,0.1,4.3,0.2,6.4,0.2C888.3,393.4,920.7,393.4,953.3,393.4z"/>
	<path class="st1" d="M615.7,773.3c-21.7,0-43.4,0.2-65.1-0.1c-7.6-0.1-10.5-2.7-12-8.8c-1.6-6.2,0.5-13,5.9-15.9
		c2.9-1.6,6.7-2.5,9.9-2.6c18-0.5,36.1-0.7,54.2-0.6c22,0.1,44,0.7,66.1,0.7c7.2,0,8.7,5.6,11.3,10c2.4,4.2,1.1,10.8-2.1,13.6
		c-1.3,1.1-3.2,1.8-4.9,1.9c-15.3,0.8-30.6,1.5-45.9,2.1c-5.7,0.2-11.6,0-17.3,0C615.7,773.5,615.7,773.4,615.7,773.3z"/>
	<path class="st1" d="M1309.7,750.6c17.6,0,35.2,0,52.8,0c2.8,0,5.7,0.5,8.6,0.9c5.8,1,10.9,7.2,10.9,12.9c0,5.5-4.6,10.6-11.1,11.3
		c-8.1,0.9-16.3,1.7-24.5,1.7c-30.1,0.2-60.1,0.3-90.1-0.1c-6.1-0.1-12.3-1.4-18.1-3.3c-5.2-1.6-6.9-6.7-6.3-13.3
		c0.5-5.2,3.9-7.7,8.4-8.2c9.2-1.2,18.4-2.2,27.6-2.4c13.9-0.4,28-0.1,41.9-0.1C1309.7,750.3,1309.7,750.4,1309.7,750.6z"/>
	<path class="st1" d="M426.3,859c17.3,0,34.6-0.1,51.9,0c3.5,0,6.9,0.5,10.4,0.9c6,0.9,12,7.2,12.1,12.5c0.1,4.6-5.6,10.5-11.7,11
		c-11.3,1-22.7,1.8-34.1,1.8c-25.8,0-51.6-0.5-77.3-1c-3.3-0.1-6.7-0.6-9.9-0.9c-6.2-0.5-9.7-4.4-10-10.8
		c-0.4-6.3,2.7-11.2,8.7-11.9c7.8-1,15.7-1.5,23.6-1.5C402.1,858.8,414.2,859,426.3,859L426.3,859z"/>
	<path class="st1" d="M1491.9,888.4c-20.6-0.7-41.2-1.3-61.8-2.2c-9.3-0.5-14-10.2-8.7-17.9c1.2-1.7,4.3-2.8,6.6-2.9
		c14.9-0.8,30-1.8,44.9-1.9c23.3-0.1,46.7,0.5,70.1,0.9c4.1,0.1,8.1,0.7,12.2,0.9c4.5,0.3,6.4,2.9,7,6.9c1.3,8.4-3.4,14-12.6,14.6
		c-10.5,0.6-20.9,0.9-31.3,1.1c-8.8,0.2-17.6,0-26.4,0C1491.9,888.1,1491.9,888.2,1491.9,888.4z"/>
	<path class="st0" d="M972.7,690.3c17.5-1.5,33.1,3.5,46.9,13.9c3.6,2.7,6.8,6.5,9.5,10.3c3,4.5,2,8.6-1.9,12.3
		c-4.5,4.4-9.1,5.4-13.6,2.8c-3.6-2.1-7.3-4.4-10.9-6.7c-14-8.5-29.3-9-44.9-6.4c-6.4,1.1-12.7,3.1-19,4.6
		c-6.3,1.4-10.6-0.1-12.8-4.1c-3-5.4-2.4-11.8,1.7-16c6-6.4,14.1-8.1,22.3-9.1C957.5,690.9,965.1,690.8,972.7,690.3z"/>
	<path class="st1" d="M317.2,730.3c18.8-0.2,35.1,15.5,35.3,33.9c0.2,19.3-16.3,36-35.8,36.3c-17.7,0.2-34.3-17.2-34.5-36.2
		C282,746,297.9,730.5,317.2,730.3z M291.3,764.9c0.1,13.7,12.2,26.1,25.8,26.1c13.2,0.1,26-12.4,26.1-25.3
		c0.2-14.8-12-25.9-28.2-25.8C303.9,740,291.3,753.2,291.3,764.9z"/>
	<path class="st0" d="M386.9,437.3c20.3,1.7,34.9,18,33.4,37.4c-1.2,15.9-21.4,33.5-37.4,31.9c-16.1-1.7-33.5-15.6-31.1-39.9
		C353.7,450.3,370.5,435.9,386.9,437.3z M385.6,445.7c-14.5,0-26.2,11.6-26.2,25.7c0,13.8,12.9,27.1,26.1,27.1
		c14.2-0.1,26.8-12.8,26.6-26.9C411.9,457.8,399.4,445.7,385.6,445.7z"/>
	<path class="st0" d="M705.4,617.2c2-8,3.4-16.2,6.2-24c3.6-9.7,11.8-13.6,21.7-13.7c8.7-0.1,15,4.5,18.7,12.3
		c8.3,17.9,8.1,35.7-0.9,53.4c-4,7.7-10.7,10.8-19,10.8c-8.5-0.1-15.3-3.6-19.5-11.2c-4.6-8.5-5.8-17.8-5.8-27.2
		C706.2,617.4,705.8,617.3,705.4,617.2z M747.7,619.7c0.2,0,0.3,0,0.5,0c-0.4-5.9-0.8-11.8-1.2-17.7c-0.1-1.1-0.3-2.1-0.5-3.1
		c-1.8-7.7-7.9-13.6-14.3-13.8c-5.9-0.2-10.8,4.1-13.7,12c-3.7,10.3-3.5,21-1.9,31.4c0.9,5.7,2.7,11.6,5.6,16.6
		c3.9,6.9,10.8,7.4,16.9,2.4c5.6-4.6,8.7-10.4,8.7-17.7C747.7,626.4,747.7,623,747.7,619.7z"/>
	<path class="st0" d="M1382.8,416c2-8.2,3.7-15.3,5.3-22.3s0.9-8-5.7-10.5c-5.3-1.9-10.7-3.4-15.9-5.4c-2.2-0.8-5.3-1.5-4.2-5.2
		c1.1-3.7,4-3.9,6.9-3.2c6.2,1.5,12.3,3.4,18.3,5.4c4.1,1.4,6.4-0.4,7.9-3.8c2.4-5.5,4.6-10.9,6.7-16.4c0.4-1,0.7-2,1.2-2.9
		c1.4-2.4,2.1-6,6-4.5c3.6,1.5,2.6,4.8,1.9,7.5c-1.6,6.2-3.6,12.2-5.4,18.3c-1.8,6.3-0.7,8,5.4,10.1c6,2.1,12,4.1,17.9,6.7
		c1.7,0.7,2.6,3.5,3.9,5.3c-2.2,0.8-4.6,2.6-6.7,2.4c-4-0.5-7.8-2.1-11.8-3.3c-0.8-0.3-1.7-0.5-2.6-0.8c-9.8-3-12.6-1.5-15.9,8.3
		c-1.6,5-3.1,10.1-4.8,15.1c-0.8,2.4-2.6,4.6-5.5,3.4C1384.4,419.1,1383.6,416.9,1382.8,416z"/>
	<path class="st0" d="M615.9,391.9c-14.9-20.2-27.4-41.8-40.4-64.7c25.4-2.9,49.5-2.9,73.5-2.5c0.4,0.5,0.7,0.9,1.1,1.4
		c-10.8,22-21.6,44-32.4,66C617.1,392,616.5,391.9,615.9,391.9z M587.9,332.4c-0.1,1.7-0.3,2.1-0.2,2.3
		c6.9,15.2,15.7,29.3,26.5,42.1c2.2,2.6,4,1.3,5.2-1.2c5.8-12.7,11.7-25.3,17.3-38c0.8-1.8,0.9-3.9,1.6-7.5
		C620.9,330.9,604.4,331.7,587.9,332.4z"/>
	<path class="st0" d="M1136.5,149c-21.3,10.8-42.6,21.7-64.8,32.9c-0.8-3.3-1.7-5.3-1.7-7.2c0.4-13.7,0.9-27.2,1.5-40.9
		c0.3-7.6,0.7-15.1,1.2-22.7c0.1-1.8,0.5-3.7,0.9-6.6c21.5,14.5,42.3,28.4,63,42.4C1136.5,147.6,1136.5,148.3,1136.5,149z
		 M1079.6,117.1c-0.6,3-1.3,4.7-1.4,6.5c-0.7,13.6-1.5,27.1-1.9,40.7c-0.2,5.8,1.2,6.8,6.4,4.5c11.6-5.4,23-10.9,34.3-16.6
		c2.5-1.2,4.5-3.2,7.4-5.4C1109.9,135.6,1095.6,126,1079.6,117.1z"/>
	<path class="st0" d="M440.5,296.3c3.4,0,6.7-0.2,10,0c3.1,0.2,4.3-1.1,4.4-4.2c0.2-6.8,0.5-13.7,0.9-20.4c0.2-2.4,0.7-4.8,1.5-7
		c0.4-0.9,1.8-1.9,2.6-1.8c0.8,0.1,2.1,1.5,2.2,2.3c0.7,6.3,1.5,12.6,1.7,19c0.3,10.9,0.1,10.8,11.1,11.4c6.2,0.3,12.4,0.9,18.5,1.8
		c1.5,0.2,2.7,2.2,4,3.4c-1.3,1.1-2.5,2.9-3.8,3.1c-6.9,0.8-13.8,1.4-20.8,1.6c-8.8,0.4-8.7,0.2-9,8.8c-0.3,6.8-0.8,13.6-1.7,20.3
		c-0.2,1.6-2.3,3-3.5,4.5c-1.3-1.5-3.4-3-3.6-4.6c-0.7-7.1-1.1-14.2-1.4-21.3c-0.3-7.3-0.3-7.5-7.8-7.7c-5.7-0.2-11.5-0.5-17.2-1
		c-1.2-0.1-2.6-0.2-3.5-0.9c-1.1-0.7-2.3-2.2-2.3-3.3c0-1.1,1.4-2.9,2.4-3c4.9-0.7,9.9-0.9,14.9-1.4
		C440.5,296,440.5,296.1,440.5,296.3z"/>
	<path class="st1" d="M1441.3,778.6c-5.1-1.1-11-1.8-16.5-3.6c-5.6-1.9-8.5-7.2-8-12c0.5-5.4,4.6-9.9,10.3-11.4
		c9.8-2.6,19.8-2.6,29.7-0.3c8.3,2,12.7,15.5,7.1,22c-1.1,1.3-3,2.2-4.6,2.6C1453.5,776.8,1447.9,777.5,1441.3,778.6z"/>
	<path class="st1" d="M476.8,745.8c4.3,0.5,9.8,0.9,15.3,2c5.7,1.2,8.6,5.6,8.6,12.2c0,6.5-2.9,11.3-8.3,12.7
		c-10.4,2.6-20.8,2.5-31.1-0.5c-6.7-1.9-10-6.8-9.4-12.8c0.8-7.1,5.5-12.1,12-12.8C467.9,746.4,471.6,746.2,476.8,745.8z"/>
	<path class="st1" d="M1772.6,655.7c5.1,0.9,10.4,1.5,15.5,2.9c5.7,1.5,8.8,6,8.7,11.3c-0.1,5.4-3.3,9.7-8.8,11.3
		c-11,3.1-22.1,3.1-33.2,0c-5.7-1.6-8.6-5.5-8.7-10.8c-0.1-5.3,3.2-10.5,8.4-11.8C1760.3,657.2,1766.4,656.7,1772.6,655.7z"/>
	<path class="st1" d="M148.3,653.5c5.1,0.5,10.6,0.7,16,1.4c5.2,0.6,7.2,2.8,7.7,7.9c0.2,2.3,0.2,4.6-0.1,6.8c-0.5,4-2.4,7-6.8,7.1
		c-11,0.3-22,0.7-33,0.2c-6.5-0.3-8.1-3-8.7-10c-0.6-7.7,2.2-11.4,9.7-12.3C138,654.1,143,653.9,148.3,653.5z"/>
	<path class="st0" d="M1177.4,142c0.1-12.4,10.4-23.2,22-23.3c12.2,0,22.8,11,22.7,23.7c-0.1,11.6-11.3,22-23.5,21.9
		C1187.1,164,1177.3,153.7,1177.4,142z M1213.8,141.1c0-7.7-5.6-13.3-13.5-13.4c-8.9-0.1-15.6,5.6-15.4,13.1
		c0.2,7.8,6.8,14.6,14.5,14.7C1207.5,155.6,1213.8,149.3,1213.8,141.1z"/>
	<path class="st0" d="M850.7,153.3c11.6,0,22.5,11,22.4,22.5c-0.1,11.4-10.8,22.3-21.6,22.2c-12.9-0.1-23.6-9.9-23.5-21.7
		C828.1,163.6,838.3,153.2,850.7,153.3z M850.2,189.6c7.7,0.1,14.3-6.9,14.5-15.7c0.2-7.6-4.6-12.4-12.5-12.5
		c-9-0.2-16.2,5.7-16.4,13.5C835.6,182.5,842.5,189.5,850.2,189.6z"/>
	<path class="st1" d="M1680.6,649.9c9.8,0.1,17.7,7.4,17.6,16.4c-0.1,8.5-8.7,15.8-18.4,15.8c-9.5,0-15.9-6.7-15.8-16.1
		C1664.3,656.4,1670.9,649.9,1680.6,649.9z"/>
	<path class="st1" d="M275.6,885c-4-0.6-7.8-0.9-11.4-2c-5.3-1.5-8.8-6.5-8.9-11.5c-0.1-5,2.8-9,8.7-10.9c8.4-2.6,16.8-2.6,24.9,0.9
		c4.8,2.1,7.1,5.8,6.8,10.8c-0.3,5.6-2.4,8.7-7.8,10.3C283.9,883.8,279.6,884.2,275.6,885z"/>
	<path class="st1" d="M1643.1,888.3c-4-0.6-7.2-0.8-10.3-1.6c-5.9-1.5-8.7-5.5-8.4-11.7c0.3-6.7,3.3-10.8,9.5-11.3
		c6.6-0.6,13.3-0.5,19.9-0.1c5.8,0.5,9.1,4,9.6,9.2c0.5,6-2.6,11.6-8.2,13.1C1651.1,887.2,1646.7,887.7,1643.1,888.3z"/>
	<path class="st1" d="M239.2,646.3c9,0.2,16.4,7,16.3,15c-0.2,8.9-8.5,16.5-17.9,16.2c-8.7-0.2-16.1-7.3-16-15.4
		C221.5,653.4,229.5,646.2,239.2,646.3z"/>
	<path class="st0" d="M1035.3,630.9c0-7.7,4.3-11.5,12.8-11.2c10.1,0.4,12.1,4.4,12.7,13c0.4,6.8-6,14.4-11.6,14.1
		C1040.8,646.3,1035.1,640.7,1035.3,630.9z"/>
	<path class="st0" d="M889,620.3c6.7,0.1,13.3,6.5,13.1,12.7c-0.1,4.4-9.5,14.1-13.5,14.1c-7.7-0.1-13.8-6.7-13.8-14.6
		C874.8,625.4,880.9,620.2,889,620.3z"/>
	<path class="st1" d="M647.2,641.8c0.5-0.9,1.5-3.6,2.7-3.9c1.5-0.3,4.4,1.2,5,2.6c2.5,5.3,4.4,10.8,6.2,16.4c0.4,1-0.4,3.2-1.1,3.5
		c-1.1,0.5-3,0.2-4-0.6C650.3,655.6,648,649.7,647.2,641.8z"/>
	<path class="st1" d="M777,685.9c-1.2,2.6-1.5,4.6-2.6,5.3c-4.6,3.2-9.2,6.3-14.2,8.7c-1.5,0.6-4.7-0.7-6-2.2
		c-0.7-0.9,0.4-4.4,1.6-5.6C761.4,687,768.5,686.3,777,685.9z"/>
	<path class="st1" d="M687.5,548.2c-3.6-0.8-4.2-2.6-3.2-5.1c0.5-1.2,1.5-2.6,2.6-3c5.6-2.3,11.1-4.4,16.8-6.1
		c1.3-0.4,3.1,1.3,4.6,1.9c-0.7,1.4-1.2,3.5-2.4,4.1C699.9,543,693.7,545.6,687.5,548.2z"/>
	<path class="st1" d="M772.3,540.7c6.2-0.2,15.8,7.4,16.7,12.3c0.5,2.6-0.4,4.9-3.2,3.6c-5.5-2.7-10.6-6.1-15.6-9.6
		c-0.9-0.6-1.4-3-0.9-4C770,541.8,771.7,541.1,772.3,540.7z"/>
	<path class="st1" d="M654.9,574.7c0.2-5.5,7.3-15.5,11.6-16.9c1-0.4,2.7-0.4,3.3,0.2c0.7,0.7,1.4,2.7,0.9,3.5
		c-2.9,5.2-6,10.3-9.5,15.1c-0.6,0.9-3.1,1.3-4.4,0.8C655.8,577.2,655.3,575.4,654.9,574.7z"/>
	<path class="st1" d="M814.3,588.9c-1.2,3.5-2.6,4.6-5.2,3.5c-1.8-0.8-4.3-2-4.9-3.6c-1.8-4.6-3.1-9.7-4.3-14.6
		c-0.3-1.1,1-2.6,1.6-3.8c1.2,0.6,2.8,0.9,3.4,1.8C808.2,577.7,811.2,583.3,814.3,588.9z"/>
	<path class="st1" d="M652.7,604.2c-0.8,2.9-1.5,6.9-3.1,10.7c-0.6,1.5-2.7,2.3-4.2,3.5c-1-1.5-2.7-2.7-2.9-4.3
		c-0.8-6.2,0.7-12,4.1-17.2c1.7-2.6,4.5-2.1,5.4,0.9C652.4,599.3,652.3,601.2,652.7,604.2z"/>
	<path class="st1" d="M791.8,673.4c-0.5-1.3-1.9-3.5-1.4-4.4c2.8-4.7,6.2-9.2,9.6-13.6c0.5-0.7,2.7-1.1,3.6-0.6
		c1.1,0.6,2.2,2.3,2.4,3.6c0.5,4.8-6.9,14.1-11.8,14.8C793.7,673.2,793.5,673.2,791.8,673.4z"/>
	<path class="st1" d="M815.1,611.5c2.5,8,2.6,15.5,0.5,22.8c-0.3,0.8-2.4,1.9-3.2,1.6c-1.5-0.5-3.4-1.8-4-3.2
		C806.4,628.2,810.1,615.9,815.1,611.5z"/>
	<path class="st1" d="M690.2,690.3c-8.2,0-15.4-5.9-16.4-12.9c-0.2-1.1,0.3-2.3,0.5-3.5c1.3,0.2,2.8,0,3.6,0.6
		c4.6,3.6,9.2,7.4,13.7,11.2c0.8,0.6,1.6,2.6,1.3,3C692.2,689.8,690.7,690.2,690.2,690.3z"/>
</g>
<g>
	<path d="M369.2,1559.5c14.5-17.8,27.9-35.2,42.2-51.8c26.1-30.4,52.7-60.5,79.2-90.6c2.6-2.9,3.4-5.7,3.1-9.7
		c-2.8-38.4-5.2-76.8-7.9-115.2c-0.5-7.8-1.8-15.6-3-23.3c-1.2-8.2,0.7-11.2,8.1-14.6c7.3-3.4,14.5-4,22.2-1.3
		c31.9,11.3,64,21.6,95.6,33.6c145.5,55.3,290.9,111,436.4,166.6c109.7,41.9,219.5,83.8,329.2,125.9c65.2,25,130.2,50.4,195.2,75.7
		c10.3,4,20.4,8.6,30.4,13.2c3.2,1.5,6,3.8,9.7,6.2c-3.1,2.6-5.3,4.6-7.5,6.4c-20.3,16.5-40.3,33.5-61.1,49.4
		c-13.7,10.5-28.8,19.3-43.2,28.7c-10.3,6.7-20.5,13.5-30.9,20c-3.1,2-4.2,3.8-3.4,7.8c11.5,61.9,22.8,123.9,34.1,185.9
		c1.1,5.9,1.5,12,1.9,18c0.7,9.3-3.1,14.7-12.4,14.8s-19.3-0.4-27.7-3.8c-126.3-49.9-252.4-100.2-378.5-150.7
		c-215.1-86.1-430.3-172.3-645.2-259C413.3,1582.9,392.3,1570.8,369.2,1559.5z M743.5,1351.1c0.1,2.2,0,3.6,0.3,4.9
		c8.2,42.7,16.6,85.3,24.7,128c0.4,2-0.3,5.2-1.7,6.3c-20,15.3-39.3,31.6-60.4,45.2c-29.4,19-60.2,35.8-90.2,53.9
		c-12,7.3-23.7,15.2-35.1,23.5c-8.8,6.3-8.3,12.1,1.5,16.2c10,4.1,20.5,6.8,30.7,10.3c6.2,2.1,11.5,0.9,17.1-2.4
		c61.8-36.3,123.6-72.5,185.5-108.6c16.8-9.8,24.2-23.5,21.5-43.2c-2.8-19.9-4.2-40-6.5-59.9c-1.6-13.6-3.8-27-5.5-40.6
		c-0.6-5.1-3.4-7.5-8.2-9c-19-6-37.9-12.4-56.8-18.7C754.9,1355.1,749.5,1353.2,743.5,1351.1z M686.2,1669.9
		c17.8,7.5,34.6,14.5,51.3,21.9c3.9,1.7,7,1.6,10.8-0.3c24-11.8,48.3-23.2,72.2-35.2c34.9-17.5,69.6-35.4,104.5-52.9
		c4.7-2.3,6.4-5.7,6.2-10.6c-1.4-24.1-2.7-48.2-4.3-72.2c-1.5-23.1-3.5-46.1-5-69.1c-0.5-8.6-0.4-17.3,0-26
		c0.3-5.6-1.3-9.1-7.1-10.7c-4.6-1.3-8.8-4.1-13.5-5.2c-9.4-2.3-19-3.9-29.7-6c0.9,3.9,1.4,6.2,2.1,8.5
		c9.1,32.5,18.1,65.1,27.3,97.6c1,3.6,1.1,6-2.6,8.6c-69.1,49.1-138.1,98.4-207.1,147.6C689.7,1667.1,688,1668.5,686.2,1669.9z
		 M951.6,1430.6c3.4,14.5,7.1,27.9,9.5,41.5c7.5,43.4,14.5,86.9,21.5,130.4c0.9,5.7-1.5,10.4-6.2,13.5c-4.4,2.8-9,5.3-13.8,7.4
		c-52.8,23-102.1,52.3-150.1,84c-3,2-5.5,4.8-8.5,7.6c1.5,1.1,1.9,1.6,2.4,1.9c18.2,8.2,36.3,16.4,54.6,24.3c2,0.8,5.2,0.1,7.3-0.9
		c41.4-21.1,82.9-42.3,124.1-63.9c11.2-5.9,21.6-13.1,32.2-20c1.8-1.2,3.5-4.3,3.2-6.3c-1.7-12.7-4.1-25.4-6.1-38.1
		c-4.7-29.2-9-58.4-14.1-87.5c-4.4-25.1-8-50.5-17.2-74.5c-0.9-2.3-2.1-5.6-4-6.3C975.2,1439.1,963.9,1435.1,951.6,1430.6z
		 M1146.7,1852.1c9,10.6,24.1,13.9,34.3,6.6c28.8-20.6,57.7-41.2,85.6-62.9c21.6-16.8,41.8-35.4,62.7-53.1c4.3-3.7,5-7.6,3.2-12.8
		c-19.3-55.6-39.5-110.8-65.8-163.6c-2.3-4.7-5-9.2-8.1-13.4c-10-13.3-25.4-18.1-39.9-23.9c-7.7-3.1-12,1.8-9.9,10.6
		c4.4,18.4,8,37.1,14.3,54.9c15.6,44.3,27.5,89.5,37.3,135.4c2.2,10.3-0.1,18.6-6.5,26.3c-3.2,3.8-6.4,7.9-10.1,11.1
		c-21.1,18.4-42.4,36.5-63.5,54.8C1169,1831.8,1158,1841.9,1146.7,1852.1z M955.3,1776c18.8,14.4,39.1,22.2,61.3,24
		c4.7,0.4,9.8-4.8,14.7-7.6c0.6-0.3,0.4-1.9,0.7-2.7c1.6-4,2.6-8.5,5.1-11.7c3.7-4.7,8.4-8.6,12.9-12.7
		c25.7-23.2,51.5-46.3,77.3-69.4c8.5-7.6,11.1-17.3,9.3-28c-2.5-15.1-5.4-30.1-8.9-44.9c-6.4-27.2-13.9-54.2-20-81.4
		c-3.3-14.7-4.9-29.7-6.8-44.7c-0.8-6.1-2.7-10.1-8.9-12.7c-12.5-5.1-24.6-11.1-36.9-16.5c-4.5-2-9.1-3.6-14.3-5.7
		c0.2,2,0.2,3,0.5,3.9c14.5,64.5,29.2,129.1,43.5,193.6c1.7,7.8,2.2,15.9,2.3,23.9c0,3.2-2,7.5-4.5,9.3c-16.5,11.6-33,23-50.1,33.7
		c-19.6,12.2-39.9,23.4-59.7,35.5C966.6,1765.8,961.3,1771.1,955.3,1776z M1248.5,1897c9.7,4.2,18.5,7.8,27.3,11.8
		c3.3,1.5,5.6,1.3,8.7-0.9c49.3-35.3,98.6-70.4,148-105.4c2.9-2,3.5-3.8,2.9-7.4c-7.1-44.5-14-89-21-133.4c-2.5-15.7-4.5-31.5-8-47
		c-1.3-5.8-4.7-12.9-9.4-16c-16.2-10.6-35.2-14.8-54.6-21.4c0.9,3.3,1.3,5.3,2,7.3c2.2,5.6,5,11.1,6.6,16.8
		c14.2,50.7,28.2,101.5,42.5,152.2c1.4,5,0.7,9-2.6,12.8c-7.9,9.1-15.5,18.6-23.9,27.2c-28.6,29.5-59.6,56.5-92,81.8
		C1266.3,1882.5,1257.7,1889.6,1248.5,1897z M1101.9,1487.1c0.9,4.1,1.3,6.6,1.9,9.1c6.1,23.4,12,46.8,18.3,70.1
		c10.4,38.9,21.1,77.7,31.5,116.5c0.6,2.2,0.7,5.7-0.6,7c-9.8,10.2-19.4,20.5-30.1,29.7c-21.2,18.2-43.1,35.7-64.8,53.5
		c-10.3,8.4-20.6,16.7-30.9,25.1c-1.7,1.4-4.9,3.5-4.6,4.5c0.6,2.4,2.5,4.9,4.7,6.3c9.8,6.3,19.8,7.2,30,0.5c4-2.7,8.4-4.9,12.3-7.6
		c34.5-23.4,69-46.8,103.4-70.4c8.9-6.1,17.5-12.9,25.9-19.8c5.9-4.7,8.4-11.1,7-18.8c-0.7-3.8-0.8-7.7-1.9-11.3
		c-15.8-55.6-34-110.4-56.1-163.8c-1.7-4.2-4.6-8-7.4-11.6C1130.9,1494,1115.2,1494.9,1101.9,1487.1z M1275.3,1553.8
		c7.6,20.2,13.6,38.8,21.6,56.6c18.5,41.3,38,82.1,57,123.2c0.7,1.6,0.8,4.6-0.2,5.6c-9.9,10.3-19.4,21.2-30.5,30.2
		c-31.3,25.3-63.3,49.8-95.2,74.4c-11.8,9.1-24.1,17.8-36.7,27c8.9,4.5,17.2,8,24.9,12.7c12.5,7.6,22.9,4.4,33.3-4.2
		c24-19.6,48.8-38.2,72.2-58.5c18.8-16.3,36.2-34.3,53.7-52.1c4.6-4.6,9.3-10.3,7.3-18.1c-13.8-54.1-27.8-108.3-41.4-162.5
		c-1.4-5.6-4-9.3-9.3-11.6c-14.7-6.4-29.4-13.2-44.2-19.5C1284.6,1555.7,1280.8,1555.2,1275.3,1553.8z M631.9,1306.2
		c0.5,3.3,0.6,4.8,0.9,6.4c8.2,39.2,16.4,78.4,24.3,117.6c0.5,2.4-0.7,6.2-2.4,7.8c-53.6,48.2-107.5,96.2-161.2,144.3
		c-2.6,2.3-4.8,5.1-7,7.3c10,4.3,19.5,7.8,28.5,12.5c4.9,2.6,7.8,2,11.6-1.5c9.4-8.8,19.1-17.3,28.7-25.9
		c29.3-26.2,58.9-51.9,91.4-74.2c14.6-10,29.3-20,43.6-30.3c2.4-1.7,4.8-5.3,4.9-8.2c1.3-21.6-0.9-43-3.8-64.4
		c-2.2-16.5-3.3-33.2-4.7-49.8c-0.3-4-0.2-8.1,0-12.1c0.1-5.4-1.7-9-7.2-11.1c-6.6-2.4-12.7-6-19.3-8.6
		C651.3,1312.7,642.2,1309.8,631.9,1306.2z M1067.1,1821.7c3.8,1.6,6.4,2.7,8.9,3.8c15.5,6.7,31.3,12.9,46.4,20.5
		c5.7,2.8,8.9,2.9,13.6-1.3c20.4-18.2,41.4-35.9,61.9-54c17.4-15.4,36.4-29.4,49.8-49c2.2-3.2,2.7-5.8,1.9-9.4
		c-11.2-46.3-22.2-92.7-33.4-139c-5.1-21.3-10-42.6-15.5-63.8c-0.9-3.3-3.7-6.9-6.6-8.8c-9.8-6.5-21.3-7.8-33.4-9.9
		c1.2,3.2,2.1,5.6,3.1,7.9c24.7,59.4,44.6,120.3,57.5,183.4c0.6,3.1,0.1,7.7-1.8,9.9c-5.9,6.8-12.2,13.6-19.4,18.8
		c-25,18-50.4,35.4-75.8,52.8C1105.6,1796.1,1086.8,1808.5,1067.1,1821.7z M885.2,1750.7c2.1,1.1,3.2,1.8,4.5,2.3
		c11.2,4.4,22.6,8.5,33.7,13.3c4.6,2,7.9,1.5,12.2-1.1c42.1-25.2,84.3-50.4,126.8-74.8c8.1-4.7,10.7-9.8,8.8-18.2
		c-0.1-0.4-0.1-0.8-0.1-1.2c-5.3-29.5-10.2-59.1-16.1-88.5c-7.5-37.3-16-74.3-23.5-111.6c-2-9.7-5.4-16.4-16.2-17.3
		c-2.1-0.2-4.2-1.2-6.3-2c-6.2-2.2-7.8-1.3-6.9,5.3c1.3,10.2,3,20.3,5,30.3c6,30.3,12.5,60.6,18.3,91c4.7,24.7,8.8,49.4,13,74.2
		c0.4,2.2-0.2,5.6-1.7,7c-6,5.5-12.1,11.4-19.1,15.4c-42.3,24.2-84.8,47.9-127.2,71.9C888.6,1747.6,887.3,1749.1,885.2,1750.7z
		 M703.1,1423c-0.4,0-0.9,0.1-1.3,0.1c0,9.1,0.1,18.1,0,27.2c-0.2,11.9-1.4,23.5-12.2,31.2c-2.9,2.1-5.6,4.6-8.5,6.7
		c-12.4,8.9-25.6,16.9-37.2,26.8c-34.3,29.3-67.9,59.3-101.7,89.2c-1.7,1.5-2.3,4.1-3.4,6.2c2.5,0.7,5.3,2.5,7.5,1.9
		c5.9-1.7,11.8-4.1,17.3-6.9c33.2-16.6,63.4-38.1,94.4-58.4c32.5-21.3,65-42.4,97.7-63.5c4.3-2.8,5.1-5.5,3.9-10.4
		c-8.9-34.5-18-68.9-25.8-103.6c-3.7-16.3-11.9-27.8-26.9-34.6c-2.4-1.1-5.3-1.3-7.9-1.9c-0.4,2.7-1.4,5.4-1.2,8.1
		C699.3,1368.5,701.2,1395.8,703.1,1423z M663.2,1661.2c2.5-0.6,4.4-0.7,5.9-1.5c10.2-5.3,20.9-9.8,30.2-16.3
		c61-43.2,121.7-86.7,186-125c3.7-2.2,4.2-4.5,3-8.4c-4.8-16-9.6-32-13.8-48.2c-5-18.9-9.4-37.9-14-56.8
		c-2.7-11.1-9.3-17.9-20.9-19.7c-7.4-1.1-9.4,0.5-8.2,7.8c1.1,7.2,2.3,14.3,3.3,21.4c4.4,31,8.6,62.1,13,93.1c0.7,5.1,0.4,9.8-4,13
		c-11.1,8.3-21.8,17.4-33.7,24.4c-55.2,32.4-110.8,64.1-166.3,96.2c-1.9,1.1-3.8,2.4-5.4,3.9c-4.4,4.1-4.1,7.5,1.5,9.4
		C647.7,1657.2,655.8,1659.1,663.2,1661.2z M556.6,1393.5c-0.6,0-1.3-0.1-1.9-0.1c3.4,10.8-2,17.5-9.2,24.4
		c-18.6,17.9-36.5,36.4-54.9,54.5c-20.7,20.4-41.6,40.4-62.3,60.8c-6.6,6.5-12.7,13.4-18.8,20.4c-1.2,1.4-1.8,4.4-1.1,5.9
		c1.6,3.3,11,5.1,14,2.9c8.7-6.2,17.7-12.1,25.6-19.2c46.9-42.1,93.6-84.5,140.1-127c1.8-1.6,2.8-5.3,2.5-7.8
		c-1-7.2-2.6-14.2-4.3-21.3c-7.6-30.7-16-61.1-22.6-92c-2.3-10.7-8.6-15.7-16.9-19.9c-1.9-0.9-5-1.2-6.6-0.2c-1.1,0.6-1,4-0.7,6.1
		c0.7,5.2,2.1,10.2,2.8,15.4c2.4,17.9,4.4,35.9,7,53.8C551.5,1364.7,554.2,1379,556.6,1393.5z M1302.1,1915.1
		c7.8,4.6,14.2,8.9,21.1,12.2c12,5.8,24.5,10.3,38.1,10.4c2.4,0,5.4-0.7,7.1-2.3c25.3-22.1,50.3-44.6,75.6-66.7
		c11.8-10.3,21-21.4,16.5-38.5c-0.9-3.5-0.9-7.3-2-10.7c-2.4-6.9-5.3-13.5-8.1-20.8c-2.2,1.6-3.2,2.3-4.1,3.1
		c-42,32.2-84.1,64.4-126,96.7C1314.1,1903.4,1308.7,1909.1,1302.1,1915.1z M436.4,1568.2c3.3,2.3,5.7,4.6,8.5,6
		c17.5,8.6,26.3,10.5,36.8-5.3c0.6-0.8,1.3-1.5,2-2.3c22.6-23.8,45-47.8,67.9-71.4c22.3-23,45.1-45.5,67.6-68.3
		c2-2.1,4.6-4.8,4.7-7.3c0.5-7.4,0.9-15-0.4-22.3c-3.4-19.4-7.4-38.7-11.6-57.9c-2.6-12.1-5.1-24.4-9.1-36.2
		c-3.3-9.7-16-18.5-28.7-13.5c0.5,1.8,1,3.8,1.6,5.6c11.3,33.6,19.3,68.1,26.5,102.8c2.7,13-0.3,21.6-8.9,30.6
		c-45.7,47.7-94.5,91.8-147.1,131.7C443.1,1562.8,440.1,1565.3,436.4,1568.2z M438.4,1501.1c0.3,0.3,0.6,0.6,0.8,0.9
		c1.4-1,2.8-1.9,4.1-3c31.3-26.6,62.5-53.3,94-79.7c5.2-4.3,7.5-8.8,7.1-15.4c-1.4-23.7-2-47.4-3.8-71.1
		c-1.2-16.6-3.7-33.1-5.9-49.6c-2.6-19.2-14.1-23.6-31.9-20.6c1.4,25.6,2.2,51.4,4.4,77c2.1,24.7,5.6,49.2,8.3,73.8
		c0.2,2.2-0.9,5.1-2.4,6.8c-23.6,25.6-47.4,51.1-71.1,76.6C440.7,1498.1,439.6,1499.7,438.4,1501.1z M1494.3,1751.6
		c-3.3-6-6.3-10.5-8.5-15.4c-13.1-29.8-26.8-59.6-32.8-91.8c-2.3-12.1-7.9-20.3-16.3-28.1c-5.6-5.2-11.4-4.5-17.6-3.6
		c10.3,53.7,20.5,106.8,31,161.4C1465,1766.4,1479.4,1759.1,1494.3,1751.6z M764.9,1700.7c0,0.7,0.1,1.5,0.1,2.2
		c5.1,0.4,10.8,2.4,15.3,0.9c9.1-3,17.9-7.3,26.3-12c22.6-12.6,44.9-26,67.5-38.6c30-16.8,60.3-33.1,90.5-49.6
		c3.9-2.1,5.2-4.6,4.4-9.2c-2.2-12.1-3.9-24.2-5.4-36.4c-5.5-44-16-87-27.2-129.8c-0.3-1.3-1.2-2.5-1.8-3.7
		c-1.2,1.5-1.4,2.7-1.3,3.8c1.4,25.1,3.3,50.2,4.1,75.3c0.7,22.7-0.2,45.5,0.3,68.3c0.2,11,1.3,22.1,3,32.9
		c0.9,5.9-0.7,8.5-5.9,11.1c-47.7,23.3-95.3,46.9-142.9,70.5C782.8,1691,773.9,1695.9,764.9,1700.7z M1467.4,1861.5
		c-1.9,1.4-2.9,2-3.8,2.8c-28.3,25.5-54.7,53.4-90,69.9c-5.1,2.4-5.4,7.1-1.7,11.6c6.2,7.4,21.7,11,30.4,6.7
		c23.6-11.7,47.1-23.7,70.5-35.7c1.4-0.7,2.8-3.4,2.6-4.9C1473,1895.4,1470.2,1879,1467.4,1861.5z M1564.4,1700.9
		c-0.3-1.2-0.4-3.2-1.2-5c-4.7-10.9-9.4-21.8-14.4-32.5c-1-2.2-3.2-4.4-5.4-5.4c-15.5-7.5-31.2-14.8-46.9-22
		c-1.9-0.9-4.3-0.6-6.5-0.9c-0.5,0.5-0.9,1-1.4,1.5c13.2,29.2,26.5,58.3,39.7,87.4C1541.1,1715.9,1552.5,1708.6,1564.4,1700.9z
		 M1514.6,1725.5c-0.4-1.8-0.6-4.5-1.6-6.9c-9.6-24.1-19.4-48.1-28.9-72.2c-4.3-11-10.1-20-23.4-21c-1.2-0.1-2.2-1-3.4-1.2
		c-2-0.3-4.1-0.3-6.2-0.4c0.1,2.1-0.5,4.4,0.2,6.3c4.3,11.3,8.5,22.6,13.3,33.6c6.9,15.9,14.4,31.4,21.4,47.3
		c3.5,7.9,6.1,16.2,9.3,24.2c1.6,4,4.5,6.3,8.9,5.2C1507.8,1739.6,1514.5,1729.8,1514.6,1725.5z M552.4,1513.5
		c0.5,0.5,0.9,1.1,1.4,1.6c1.5-1.2,3-2.3,4.4-3.6c27.6-26.8,55.1-53.7,82.7-80.4c3.5-3.3,4.3-6.5,3.2-11.1
		c-5.8-25.9-11.2-51.9-16.8-77.8c-2.7-12.6-5.4-25.2-8.3-37.7c-0.9-3.9-7.8-8.7-9-6.8c-1.6,2.4-1.1,6.1-1.5,9.2
		c0,0.4,0.2,0.8,0.3,1.2c8.4,36.6,16.9,73.3,25.2,109.9c0.4,2-0.1,5-1.4,6.4c-22.8,25.8-45.7,51.5-68.7,77.2
		C560.2,1505.6,556.2,1509.5,552.4,1513.5z M1418.3,1963.9c13.1,5.6,24.9,11,37.1,15.5c2.7,1,6.8-0.5,9.8-1.8
		c4.1-1.8,7.8-4.4,11.4-7c1.9-1.3,4.8-3.3,4.8-5c0.4-12.1,0.2-24.3,0.2-38C1459.6,1940.3,1439.3,1951.9,1418.3,1963.9z
		 M1571.1,1696.4c7.5-5.3,14.8-10.3,21.7-15.8c0.7-0.6-0.5-5.7-1.9-6.3c-9.5-4.1-19.3-7.7-29.1-11.1c-3.1-1.1-5.4,1-4.4,4.3
		c2.5,8.2,5.3,16.4,8.4,24.4C1566.3,1693.4,1568.5,1694.3,1571.1,1696.4z M435.1,1506.8c-0.4-0.4-0.7-0.8-1.1-1.2
		c-7.8,7.3-15.5,14.6-23.3,21.8c0.5,0.5,1,1.1,1.5,1.6C421.7,1523.6,427.5,1514.2,435.1,1506.8z M1485.5,1981.3c-0.7,0-1.3,0-2-0.1
		c-1.2,2.2-2.8,4.3-3.4,6.7c-0.2,0.8,2.4,3.2,3.5,3.1c1.9-0.2,5.1-2.1,5-2.9C1488.3,1985.7,1486.6,1983.5,1485.5,1981.3z"/>
	<path d="M231.6,1456.5c-7.7-9.4-14.4-17.9-17.6-28.9c-1.7-6-4.2-11.7-6.4-17.6c-3.6-9.7-9.1-13.6-19.4-12.1
		c-16.1,2.3-32.1,5.6-48.1,8.2c-5.9,1-11.9,1.5-17.9,2c-3.2,0.3-4.6-1.5-3-4.5c4.2-8.2,7.7-16.8,13-24.2c9.5-13.2,20-25.7,30.4-38.3
		c2.3-2.8,2.7-4.9,0.8-7.9c-10.3-16.5-14.9-35.1-18.9-53.8c-0.6-2.7,0.1-6.9,1.9-8.6c1.8-1.6,5.9-1.7,8.7-1
		c13.8,3.3,27.6,7.2,41.3,10.8c9.1,2.4,15.8,0,21.7-8.2c7.9-11,14.9-23.2,27.6-29.8c1-0.5,2-1,3.8-1.9c0.6,16.5,0.5,32.2-6.8,46.9
		c-2.9,5.8-2.1,11.4,2.3,15.5c4.6,4.3,10.4,7.5,15.5,11.3c15.7,11.6,31.3,23.2,47,34.8c0.9,0.7,1.6,1.8,2.4,2.7
		c7.5,9,6.5,15.6-4.4,20.4c-8.6,3.8-17.7,6.5-26.8,9.1c-11.2,3.2-22.7,5.6-33.9,8.8c-1.8,0.5-4.1,3.1-4.4,5
		C237.2,1415.1,234.5,1435.2,231.6,1456.5z M221.7,1411.5c0.6-0.1,1.1-0.3,1.7-0.4c2.1-10.4,4.2-20.9,6.3-31.3
		c1.5-7.7,5.8-12.7,13.7-14c7.7-1.3,15.5-2.2,23.2-3.9c3.7-0.8,7.1-3.1,10.6-4.7c-2.2-3.2-4-6.7-6.6-9.5
		c-8.6-9.2-19.5-14.8-30.9-19.5c-6-2.5-8.4-5.8-8-12.5c0.7-11,0.2-22.1,0.2-33.2c0-1.8,0-3.7,0-5.5c-4.8,4.5-7.9,9.6-11.9,13.7
		c-11.2,11.2-20.2,17.1-32.7,11.6c-6.5-2.9-14.3-3.1-23-4.8c2.8,8.1,4.2,15.2,7.6,21.1c7.2,12.8,7.3,19.1-1.9,30.7
		c-2.4,3-5.1,5.7-7.6,8.6c-6.3,7.5-12.4,15.1-19.8,24.1c22-3.1,42.1-5.9,62.1-8.7C210.5,1386.3,216.1,1398.9,221.7,1411.5z"/>
	<path d="M1467.3,1144.2c-0.6,4.6-0.8,9.2-1.7,13.7c-2.2,10.2,0.4,18.6,7.9,25.8c10.1,9.8,19.9,20,29.9,30c4.4,4.5,4.1,6.7-1.5,9.2
		c-2.9,1.3-6.2,1.8-9.2,2.7c-5.3,1.6-10.6,3.3-16,4.8c-8.2,2.3-10.2,8.1-11.4,16c-2.8,17.4-6.8,34.7-10.8,51.9
		c-0.4,1.8-3.2,3.8-5.3,4.4c-8.2,2.1-16.5,3.6-24.7,5.5c-8.9,2.1-12.5,0.1-15.7-8.5c-4.8-12.6-9.8-25.1-14.6-37.6
		c-1.4-3.6-3.3-4.7-7.4-3.4c-14.6,4.6-29.2,9.1-44,13c-4.3,1.1-11.6,1.7-13.3-0.6c-2.3-3-1.8-9.7-0.2-13.9c3-7.8,6.9-15.5,11.8-22.1
		c7.9-10.8,8.3-21,1.8-32.5c-3.6-6.4-6.3-13.5-8.2-20.6c-1.9-7.1,1.5-10.6,9-10.5c3.6,0,7.2,0.7,10.8,1.2c10,1.5,18.9-0.9,26.3-7.7
		c10.6-9.6,21.1-19.4,31.2-29.4c10.2-10,21.7-13.2,35.4-8.8c3.2,1,6.7,1.6,10,1.8c7.3,0.5,8.9,1.8,9.3,8.9c0.1,2.2,0,4.4,0,6.6
		C1466.9,1144.1,1467.1,1144.2,1467.3,1144.2z M1418.4,1139.4c-0.6-0.3-1.1-0.6-1.7-0.9c-9.7,16.8-24.7,28-40.4,38.3
		c-3.6,2.3-7.7,3.7-11.7,5.5c-3.1,1.4-7.1,2.3-5.2,7c5.9,14.7,4.5,28.9-2,43.2c-4.1,9-6.7,18.7-10.5,29.6c10.8-3.7,20-7.1,29.3-9.9
		c7.8-2.4,15.8-4.7,23.8-6c5.9-1,10.7,2.4,13,7.9c2.1,5,3.3,10.3,5,15.4c1.2,3.8,2.4,7.6,3.6,11.4c0.5-0.1,1-0.3,1.5-0.4
		c0-5.6-0.2-11.3,0-16.9c0.6-17.7,11.9-30.2,29.3-33.1c2.5-0.4,4.9-2,7.3-3.1c-1.1-2.5-1.6-5.7-3.4-7.2
		c-7.3-6.3-14.7-12.6-22.7-17.8c-10.9-7-15.9-16.3-15.3-29.3C1418.8,1161.8,1418.4,1150.6,1418.4,1139.4z M1481.1,1216.9
		c1-1.2,2.1-2.3,3.1-3.5c-1.9-0.8-4.2-1.2-5.5-2.5c-6.3-6.2-12.4-12.6-18.6-18.9c-7.6-7.7-10.5-16.9-10.8-27.8
		c-0.2-8.9-2.6-17.7-4-26.5c-0.8-0.2-1.6-0.4-2.4-0.6c-1.8,3.3-4.9,6.5-5.2,10c-0.8,11.5-0.9,23.2-0.6,34.7c0.1,2.7,2.6,5.8,4.8,7.9
		c3,2.9,6.7,5.1,10.2,7.5c6.6,4.5,13.4,8.9,20,13.4C1475.2,1212.7,1478.2,1214.9,1481.1,1216.9z M1441.1,1277.7
		c5.2-4.3,5.1-10.3,0-13.3C1441.1,1268.7,1441.1,1272.6,1441.1,1277.7z M1437,1286.4c0,4.8,0,8.7,0,13.6
		C1441.7,1295.2,1441.6,1290.3,1437,1286.4z"/>
	<path d="M608.8,1865.7c-16.7,4.5-32.9,5.3-49.1,4.9c-8-0.2-8.6,0-7.8,7.7c1.4,14.5-4,27.3-8.8,40.3c-3.6,9.7-10.4,10.7-16.3,2.1
		c-6.4-9.2-12.1-19-17.1-29.1c-5.8-11.6-9.1-14-21.8-11.2c-8.2,1.8-16.3,4.6-24.5,6.5c-4,0.9-8.3,1.1-12.5,1.3
		c-3.3,0.2-4.4-1.8-3-4.7c1-2.2,2.2-4.4,3.8-6.1c9.8-11.2,19.5-22.5,29.7-33.4c3.2-3.4,3.6-5.7,1.4-9.8c-7.8-14-15.1-28.3-23.6-44.4
		c15.2,3.5,29.6,5.5,43,10.2c10.5,3.7,17.7,2.7,26.5-4.4c8.8-7.1,19.7-11.4,29.8-16.9c3.7-2.1,5.5,0.5,6.1,3.3
		c1.8,9,3.3,18.2,4.7,27.3c0.3,1.8,0.4,3.6,0.2,5.4c-1.9,15.7,5.3,26.5,17.8,35C594.3,1854.5,601.1,1860,608.8,1865.7z
		 M543.3,1832.1c-0.5-0.4-1.1-0.8-1.6-1.2c-19.4,9.2-41.5,13-57.3,29.7c14.9-5,29.9-9.9,44.8-14.9c0.2,0.4,0.4,0.8,0.6,1.2
		c-13,8.4-26,16.9-40.1,26c22.7-1.6,66-19.4,70.9-29.1c-7.2,0-14.1,0-21.3,0C540.9,1839.4,542.1,1835.8,543.3,1832.1z M519.7,1813
		c-0.3-0.8-0.5-1.7-0.8-2.5c-8.7,1.5-17.4,2.8-26.1,4.6c-0.6,0.1-1.4,4.6-0.5,5.6c3,3.4,6.4,6.9,10.4,9c3.2,1.7,7.4,1.6,11.3,1.9
		c1.9,0.2,4-1,5.9-0.8c6.7,0.8,12.1-1.1,16.3-6.6c0.9-1.2,4.2-0.5,5.6-1.6c2.6-2,6.4-4.8,6.4-7.2c-0.2-4.7-4.4-1.9-6.5-1.2
		c-10.3,3.2-20.5,6.9-30.8,10.2c-1.4,0.4-3.1-0.3-4.7-0.5c0.7-1.2,1.2-2.9,2.2-3.7C512,1817.8,515.9,1815.5,519.7,1813z
		 M521.9,1883.3c8.2,1.8,10.1,0.3,15.5-12C529.1,1869.6,527.1,1871.1,521.9,1883.3z M544.5,1801.2c-12.5-2.4-17.5,0.1-16.6,8.1
		C533.6,1806.4,539.1,1803.8,544.5,1801.2z"/>
	<path class="st0" d="M126,1737.7c7.1-5.9,14.1-11.8,21.2-17.6c5.8-4.7,6.2-10.8,6.1-17.9c-0.1-8.7,1.5-17.4,3.1-26
		c0.7-3.5,4.4-4.2,7.4-2.4c2.7,1.6,5.2,3.8,7.4,6c7.2,7.5,14.4,15.2,21.4,23c2.6,2.9,4.9,3.5,8.2,1.4c9.7-6.2,20.7-8.5,31.8-10.4
		c6.4-1.1,9.1,1.3,6.1,7.1c-3.7,7.1-8.6,13.8-14.1,19.7c-3.1,3.3-3.8,5.4-0.9,8.4c5.2,5.3,10.2,10.9,15.9,15.5
		c10.4,8.5,9.2,21.7-3,27.6c-1.3,0.6-3.1,0.3-4.6,0c-7.3-1.5-14.6-2.9-21.8-4.8c-10.3-2.7-13.1-0.6-17.4,9.2
		c-3.4,7.6-7.9,14.9-13.3,21.1c-5.5,6.4-10.6,5-13.1-3.2c-2.2-6.9-3.3-14.1-4.8-21.1c-1.5-7.4-8.2-13.5-15.6-14.4
		c-8.8-1.1-17.5-2.5-26.3-3.3c-4.9-0.5-5.6-3.6-3.7-6.5C118.7,1744.9,122.6,1741.4,126,1737.7c10.1,1.5,20.2,3.3,30.3,4.8
		c12.1,1.8,16.2,5.6,18.5,17.7c1.1,5.4,2.2,10.8,3.4,16.2c0.7,0.2,1.4,0.5,2.1,0.7c3.8-6.4,8.8-12.4,11.2-19.3
		c2.8-8,4.8-10.8,13-9.3c4.1,0.7,8.1,2.2,12,3.8c4.2,1.7,8.1,4,12.2,6c0.3-0.4,0.6-0.8,0.9-1.2c-4.3-4.1-8.6-8.2-12.8-12.4
		c-8.1-8.1-8.3-9.4-3.2-19.6c0.9-1.7,2.4-3.2,3.8-4.6c3-2.9,6.1-5.6,9.2-8.4c-0.4-0.8-0.9-1.6-1.3-2.4c-9.1,1.7-18.5,2.5-27.3,5.3
		c-9.1,2.9-15.7,0.7-21.4-6.2c-2.4-2.9-4.3-6.3-6.5-9.4c-1.6-2.3-3.4-4.5-5.1-6.7c-0.7,0.3-1.4,0.6-2.1,0.8
		c0.5,3.8,1.2,7.6,1.4,11.4c0.5,7.8,2.2,16.3-5.9,21.3c-5.4,3.3-11.5,5.4-17.6,7.5C136.3,1735.6,131.1,1736.4,126,1737.7z"/>
	<path class="st0" d="M1797.9,1463c-11.5,1.1-23,2.6-34.5,3.2c-14.4,0.7-16.1,2-20.4,15.5c-1.8,5.6-4.8,11.1-8.4,15.8
		c-3.8,5.2-8.5,5.1-12.6,0c-3.4-4.4-6.1-9.4-8.6-14.5c-2.3-4.8-5-5.9-10.1-3.9c-5.4,2.1-11.1,3.4-16.8,4.4c-2,0.4-4.3-1.1-6.5-1.7
		c0.6-2,0.7-4.4,1.9-6c5.7-7.5,11.5-14.9,17.5-22.2c2.8-3.4,3.2-6.4,0.7-10.2c-5.5-8.4-10.9-16.8-15.7-25.6c-2-3.6-2.2-8.1-3.3-12.2
		c4.2,0,8.9-1.1,12.7,0.3c10.5,4,20.6,9,30.7,13.9c3.6,1.8,6.1,1.8,9.2-0.7c4.2-3.4,8.7-6.5,13.1-9.7c7-5,12.4-3,13.9,5.5
		c0.7,3.7,0.6,7.6,0.1,11.4c-2.1,14.9-0.2,18.7,13.6,24.9c7.8,3.5,15.7,6.7,23.6,10C1798.1,1461.8,1798,1462.4,1797.9,1463z
		 M1746.8,1423.8c-0.4-0.8-0.9-1.6-1.3-2.3c-3,1.1-6.1,2-8.9,3.6c-1.1,0.6-1.6,2.6-2.3,3.9c1.7,0.6,3.9,2.1,4.9,1.6
		C1741.9,1428.7,1744.3,1426.1,1746.8,1423.8z"/>
	<path d="M1760.4,1905.8c-7-9-13.2-16.4-18.6-24.3c-5.7-8.3-12.6-9.9-22-7.4c-8.7,2.3-17.7,3.6-26.7,4.6c-3.5,0.4-7.2-1.3-10.7-2.1
		c1-3.7,1.1-7.9,3.1-11c5.9-9.3,12.6-18.1,18.9-27.2c5.8-8.4,6.7-17.4,3.6-27c-1.1-3.6-1.8-7.5-2.1-11.2c-0.6-8.1,2.2-9.9,9.6-6.3
		c2.9,1.4,5.5,3.4,8.1,5.1c7.1,4.7,9.5,4.6,16-1c9.3-8,18.6-15.9,29-24.8c0.2,3.3,0.4,5.2,0.4,7c0,16.1,0.2,32.2-0.1,48.3
		c-0.1,4.8,1.1,7.7,5.9,9.6c8.3,3.3,15.7,8,21,15.5c4,5.8,3.6,8.9-3.1,10.6c-6.1,1.5-12.6,1.7-19,1.9c-9,0.3-12.3,2.7-13.1,12
		c-0.6,7.4-0.3,14.9-0.3,22.3C1760.4,1901.6,1760.4,1902.7,1760.4,1905.8z M1746.4,1855.8c0.8,0,1.8,0.3,2.4,0
		c3.8-2,8.4-3.4,10.7-6.5c1-1.4-1.7-7.2-4.2-9.4c-6.7-5.9-14.1-11.2-21.5-16.2c-1.7-1.1-5.6-1.3-6.7-0.2c-1.6,1.6-2.5,5.1-1.9,7.3
		c1.1,4.8,3.3,9.4,5.2,14.1C1734.1,1854.2,1736.4,1855.7,1746.4,1855.8z M1715.7,1839.9c-6.4,8.1-13,16.3-19.6,24.6
		c1.3,0.8,1.8,1.5,2.3,1.4c8.3-1.1,16.6-2.2,24.8-3.7c0.8-0.1,1.5-2.5,1.8-3.9C1726.8,1850.1,1722.8,1844.5,1715.7,1839.9z
		 M1760.7,1796.9c-9.7,0.7-13,7-17.8,11.5c3.2,3.8,5.7,7.2,8.7,10.2c3.7,3.7,6.8,3.1,7.7-1.9
		C1760.4,1810.5,1760.3,1804.1,1760.7,1796.9z M1756.1,1874.6c-1.3-4.8-1.9-9.5-8.4-9.4C1749.6,1873.5,1750.6,1874.7,1756.1,1874.6z
		 M1723,1818.2c0.5-0.6,1-1.2,1.5-1.8c-1.3-2.5-2.6-5-4.2-8.1c-1.7,2-2.8,3.3-4.5,5.2C1718.5,1815.3,1720.8,1816.7,1723,1818.2z
		 M1772.2,1853.6c0.4-0.6,0.8-1.1,1.1-1.7c-1.2-2.4-2.4-4.8-3.9-7.8c-1.8,1.9-3,3.2-4.9,5.1
		C1767.5,1850.9,1769.9,1852.3,1772.2,1853.6z"/>
	<path d="M1017.9,1332.8c-7.7,0-15.2,0.4-22.6-0.1c-5.5-0.4-12.1-0.6-14.6-6.6c-2.5-5.9,2.3-10.1,5.8-14.2c1.2-1.4,2.2-2.9,3.2-4.4
		c6.1-9.3,6-9.8-3.7-15.2c-8.2-4.6-9.5-12.9-1.9-18.5c4.5-3.3,10.5-4.6,15.8-7c8.5-3.8,16.9-7.6,25.4-11.4c6.3-2.8,12.4-6.9,19-8.3
		c12.6-2.5,21.4,6.6,18.2,18.9c-2.9,11.2-0.4,18.4,10,23.9c4.6,2.4,8.4,6.9,11.8,11c4.7,5.7,4.1,10.9-2.1,14.9
		c-9.4,6.1-14.3,14.9-17.4,25.1c-1.3,4.2-3.6,6.7-7.6,8.5c-7.4,3.2-14.1,8.8-22.8,2.4C1027.5,1346.7,1020.9,1342.1,1017.9,1332.8z
		 M1042.8,1345.9c0.9-0.3,1.7-0.6,2.6-0.9c1.4-7.6,5.8-14.8,2.1-23.1c-1.8-3.9,0.4-6.1,4.5-6.3c3.6-0.2,7.4,0.3,10.8-0.8
		c3-0.9,6.8-3,7.8-5.5c0.8-2-1.3-6.2-3.4-8.2c-2.9-2.9-6.7-5.1-10.5-6.9c-12.7-6-14.6-10.1-12.5-24.3c0.9-6.3,0.2-12.8,0.2-19.1
		c-4.1,4.8-7.2,9.7-9.7,14.9c-2.8,5.8-7,9.3-13.6,9.2c-4-0.1-8.1-0.8-12-0.4c-3.7,0.4-9.2,0.8-10.5,3.1c-1.4,2.3,0.9,7.3,2.5,10.7
		c1.1,2.4,3.5,4.4,5.6,6.2c2.4,2.1,5.2,3.8,8.2,5.9c-15.6,10.5-20.5,18.3-16.9,26.1c2.1-1.1,4.1-2.2,6.2-3.4c5-2.7,9.8-5.6,14.9-7.9
		c6-2.7,7.6-1.2,10.4,4.9C1033.4,1328.9,1038.3,1337.3,1042.8,1345.9z"/>
	<path d="M297,1310.6c-4.6-1.6-10.1-2.9-15-5.4c-5.4-2.7-6.9-8-4.8-13.4c2.1-5.2,6.4-6.8,11.3-5.4c6.7,1.8,13.4,4,19.8,6.8
		c2.1,0.9,4.8,4.4,4.4,6.1c-0.7,3.2-2.9,6.6-5.5,8.5C304.8,1309.7,301.1,1309.6,297,1310.6z"/>
	<path d="M104,1323.5c4.4,1.2,8.9,2.2,13.3,3.7c7.8,2.7,10.4,6.5,8.9,12c-2.6,9.4-7.1,12.6-15.7,10.5c-6.8-1.6-12.6-5.3-14.9-12
		C92.6,1329.5,92.3,1323.6,104,1323.5z"/>
	<path d="M204.3,1261.4c-10.6-9.3-10-41.2,0.9-47.7C213.7,1224,213.2,1250.8,204.3,1261.4z"/>
	<path d="M181.3,1412.2c8.1,7.6,7.8,36.4-0.1,42.9C177.6,1451.2,177.5,1418.3,181.3,1412.2z"/>
	<path class="st2" d="M743.5,1351.1c6.1,2.1,11.5,4,16.9,5.8c18.9,6.3,37.8,12.7,56.8,18.7c4.8,1.5,7.6,3.9,8.2,9
		c1.7,13.5,3.9,27,5.5,40.6c2.3,20,3.8,40,6.5,59.9c2.8,19.7-4.7,33.4-21.5,43.2c-61.9,36.1-123.7,72.3-185.5,108.6
		c-5.6,3.3-10.9,4.6-17.1,2.4c-10.2-3.5-20.8-6.2-30.7-10.3c-9.8-4.1-10.3-9.9-1.5-16.2c11.4-8.2,23.1-16.2,35.1-23.5
		c30-18.1,60.8-34.9,90.2-53.9c21.1-13.6,40.5-29.9,60.4-45.2c1.4-1.1,2.1-4.3,1.7-6.3c-8.1-42.7-16.4-85.3-24.7-128
		C743.5,1354.7,743.6,1353.3,743.5,1351.1z"/>
	<path class="st0" d="M686.2,1669.9c1.8-1.4,3.4-2.8,5.2-4c69-49.3,138-98.5,207.1-147.6c3.7-2.6,3.6-5,2.6-8.6
		c-9.2-32.5-18.2-65.1-27.3-97.6c-0.6-2.3-1.1-4.6-2.1-8.5c10.6,2.1,20.2,3.7,29.7,6c4.6,1.1,8.9,3.9,13.5,5.2
		c5.8,1.6,7.4,5.1,7.1,10.7c-0.4,8.6-0.6,17.3,0,26c1.4,23.1,3.5,46.1,5,69.1c1.6,24.1,2.9,48.1,4.3,72.2c0.3,4.9-1.5,8.3-6.2,10.6
		c-34.9,17.5-69.6,35.4-104.5,52.9c-23.9,12-48.2,23.3-72.2,35.2c-3.8,1.9-6.9,2-10.8,0.3C720.8,1684.4,704,1677.5,686.2,1669.9z"/>
	<path class="st2" d="M951.6,1430.6c12.3,4.5,23.7,8.4,34.8,12.9c1.9,0.8,3.1,4,4,6.3c9.2,24,12.8,49.4,17.2,74.5
		c5.1,29.1,9.4,58.3,14.1,87.5c2,12.7,4.4,25.3,6.1,38.1c0.3,2-1.5,5.1-3.2,6.3c-10.6,7-21,14.2-32.2,20
		c-41.2,21.6-82.7,42.7-124.1,63.9c-2.1,1.1-5.3,1.8-7.3,0.9c-18.3-7.9-36.4-16.2-54.6-24.3c-0.5-0.2-0.9-0.7-2.4-1.9
		c3.1-2.8,5.5-5.6,8.5-7.6c48-31.6,97.2-61,150.1-84c4.8-2.1,9.5-4.5,13.8-7.4c4.7-3.1,7.1-7.8,6.2-13.5
		c-7.1-43.5-14.1-87-21.5-130.4C958.7,1458.5,954.9,1445.2,951.6,1430.6z"/>
	<path class="st0" d="M1146.7,1852.1c11.3-10.2,22.3-20.3,33.5-30.1c21.1-18.4,42.4-36.4,63.5-54.8c3.8-3.3,6.9-7.3,10.1-11.1
		c6.5-7.7,8.8-15.9,6.5-26.3c-9.8-45.9-21.7-91.1-37.3-135.4c-6.2-17.8-9.8-36.5-14.3-54.9c-2.1-8.8,2.2-13.7,9.9-10.6
		c14.4,5.8,29.8,10.6,39.9,23.9c3.1,4.1,5.8,8.7,8.1,13.4c26.2,52.8,46.5,108,65.8,163.6c1.8,5.2,1.1,9.2-3.2,12.8
		c-20.9,17.7-41.1,36.3-62.7,53.1c-27.9,21.8-56.8,42.4-85.6,62.9C1170.8,1866,1155.8,1862.7,1146.7,1852.1z"/>
	<path class="st0" d="M955.3,1776c6-4.9,11.3-10.3,17.5-14.1c19.7-12.1,40-23.2,59.7-35.5c17.1-10.6,33.6-22.1,50.1-33.7
		c2.5-1.8,4.6-6.1,4.5-9.3c0-8-0.6-16.1-2.3-23.9c-14.3-64.6-29-129.1-43.5-193.6c-0.2-0.9-0.2-1.9-0.5-3.9
		c5.2,2.1,9.8,3.7,14.3,5.7c12.3,5.5,24.4,11.5,36.9,16.5c6.2,2.5,8.1,6.6,8.9,12.7c1.9,14.9,3.6,30,6.8,44.7
		c6.1,27.3,13.6,54.2,20,81.4c3.5,14.9,6.5,29.9,8.9,44.9c1.7,10.6-0.8,20.4-9.3,28c-25.8,23.1-51.6,46.2-77.3,69.4
		c-4.5,4-9.2,8-12.9,12.7c-2.5,3.2-3.5,7.7-5.1,11.7c-0.4,0.9-0.2,2.4-0.7,2.7c-4.8,2.8-10,8-14.7,7.6
		C994.3,1798.2,974,1790.4,955.3,1776z"/>
	<path class="st2" d="M1248.5,1897c9.1-7.4,17.8-14.5,26.6-21.4c32.4-25.4,63.3-52.3,92-81.8c8.4-8.7,16-18.1,23.9-27.2
		c3.3-3.8,4-7.8,2.6-12.8c-14.2-50.7-28.2-101.5-42.5-152.2c-1.6-5.8-4.5-11.2-6.6-16.8c-0.7-1.9-1.1-4-2-7.3
		c19.4,6.5,38.4,10.7,54.6,21.4c4.7,3.1,8.1,10.2,9.4,16c3.4,15.5,5.5,31.3,8,47c7,44.5,13.8,89,21,133.4c0.6,3.6-0.1,5.3-2.9,7.4
		c-49.4,35-98.8,70.2-148,105.4c-3.1,2.2-5.4,2.4-8.7,0.9C1267.1,1904.8,1258.2,1901.1,1248.5,1897z"/>
	<path class="st2" d="M1101.9,1487.1c13.4,7.8,29,6.8,38.5,19c2.8,3.6,5.6,7.5,7.4,11.6c22.1,53.4,40.3,108.2,56.1,163.8
		c1,3.6,1.2,7.5,1.9,11.3c1.4,7.7-1.1,14-7,18.8c-8.4,6.8-17,13.6-25.9,19.8c-34.4,23.6-68.9,47-103.4,70.4c-4,2.7-8.3,4.9-12.3,7.6
		c-10.1,6.7-20.2,5.8-30-0.5c-2.1-1.4-4-3.9-4.7-6.3c-0.3-1,2.9-3.1,4.6-4.5c10.3-8.4,20.7-16.7,30.9-25.1
		c21.6-17.7,43.5-35.2,64.8-53.5c10.7-9.2,20.3-19.5,30.1-29.7c1.3-1.3,1.2-4.8,0.6-7c-10.4-38.9-21-77.7-31.5-116.5
		c-6.3-23.3-12.2-46.7-18.3-70.1C1103.1,1493.7,1102.7,1491.2,1101.9,1487.1z"/>
	<path class="st2" d="M1275.3,1553.8c5.5,1.4,9.3,1.9,12.7,3.4c14.8,6.4,29.4,13.1,44.2,19.5c5.3,2.3,7.9,6.1,9.3,11.6
		c13.7,54.2,27.6,108.3,41.4,162.5c2,7.8-2.7,13.5-7.3,18.1c-17.5,17.7-34.9,35.7-53.7,52.1c-23.4,20.3-48.2,38.9-72.2,58.5
		c-10.4,8.5-20.8,11.8-33.3,4.2c-7.7-4.7-16.1-8.3-24.9-12.7c12.6-9.3,24.8-17.9,36.7-27c31.9-24.6,63.8-49.1,95.2-74.4
		c11.1-8.9,20.5-19.9,30.5-30.2c1-1,0.9-4.1,0.2-5.6c-19-41.1-38.5-81.9-57-123.2C1288.9,1592.6,1282.9,1574,1275.3,1553.8z"/>
	<path class="st0" d="M631.9,1306.2c10.3,3.5,19.4,6.4,28.4,9.9c6.6,2.5,12.7,6.1,19.3,8.6c5.5,2,7.3,5.7,7.2,11.1
		c-0.1,4-0.3,8.1,0,12.1c1.4,16.6,2.5,33.3,4.7,49.8c2.9,21.4,5.1,42.8,3.8,64.4c-0.2,2.9-2.5,6.4-4.9,8.2
		c-14.4,10.4-29,20.3-43.6,30.3c-32.5,22.3-62.1,48.1-91.4,74.2c-9.6,8.6-19.3,17.1-28.7,25.9c-3.8,3.5-6.7,4.1-11.6,1.5
		c-9-4.7-18.5-8.2-28.5-12.5c2.1-2.3,4.4-5,7-7.3c53.8-48.1,107.6-96.1,161.2-144.3c1.8-1.6,2.9-5.4,2.4-7.8
		c-7.9-39.2-16.2-78.4-24.3-117.6C632.5,1311.1,632.4,1309.5,631.9,1306.2z"/>
	<path class="st2" d="M1067.1,1821.7c19.7-13.2,38.5-25.6,57.1-38.3c25.4-17.4,50.8-34.8,75.8-52.8c7.3-5.2,13.5-12,19.4-18.8
		c1.9-2.2,2.5-6.8,1.8-9.9c-12.9-63.1-32.8-124-57.5-183.4c-1-2.3-1.8-4.7-3.1-7.9c12.1,2.2,23.6,3.4,33.4,9.9
		c2.9,1.9,5.7,5.5,6.6,8.8c5.5,21.2,10.4,42.5,15.5,63.8c11.1,46.3,22.2,92.7,33.4,139c0.9,3.5,0.3,6.2-1.9,9.4
		c-13.4,19.6-32.4,33.5-49.8,49c-20.5,18.2-41.4,35.8-61.9,54c-4.7,4.2-7.9,4.2-13.6,1.3c-15.1-7.5-30.9-13.7-46.4-20.5
		C1073.5,1824.3,1070.9,1823.3,1067.1,1821.7z"/>
	<path class="st2" d="M885.2,1750.7c2.1-1.7,3.4-3.1,5-4c42.4-23.9,84.9-47.7,127.2-71.9c7-4,13-9.9,19.1-15.4
		c1.5-1.4,2.1-4.8,1.7-7c-4.1-24.8-8.2-49.5-13-74.2c-5.8-30.4-12.3-60.6-18.3-91c-2-10-3.7-20.2-5-30.3c-0.8-6.5,0.7-7.5,6.9-5.3
		c2.1,0.7,4.2,1.8,6.3,2c10.8,0.9,14.2,7.6,16.2,17.3c7.5,37.2,16,74.3,23.5,111.6c5.9,29.4,10.8,59,16.1,88.5
		c0.1,0.4,0.1,0.8,0.1,1.2c1.9,8.4-0.7,13.5-8.8,18.2c-42.6,24.4-84.7,49.7-126.8,74.8c-4.2,2.5-7.5,3.1-12.2,1.1
		c-11.1-4.8-22.4-8.9-33.7-13.3C888.4,1752.5,887.3,1751.8,885.2,1750.7z"/>
	<path class="st2" d="M703.1,1423c-1.9-27.3-3.8-54.5-5.6-81.8c-0.2-2.7,0.8-5.4,1.2-8.1c2.6,0.6,5.5,0.8,7.9,1.9
		c15,6.8,23.2,18.2,26.9,34.6c7.8,34.7,16.9,69.1,25.8,103.6c1.3,4.9,0.5,7.6-3.9,10.4c-32.6,21-65.2,42.2-97.7,63.5
		c-31,20.3-61.2,41.8-94.4,58.4c-5.5,2.8-11.4,5.1-17.3,6.9c-2.1,0.6-5-1.2-7.5-1.9c1.1-2.1,1.7-4.7,3.4-6.2
		c33.8-29.9,67.5-59.9,101.7-89.2c11.6-9.9,24.8-17.9,37.2-26.8c2.9-2.1,5.6-4.6,8.5-6.7c10.9-7.8,12-19.4,12.2-31.2
		c0.2-9.1,0-18.1,0-27.2C702.2,1423.1,702.7,1423,703.1,1423z"/>
	<path class="st2" d="M663.2,1661.2c-7.4-2.1-15.5-3.9-23.3-6.6c-5.6-2-5.9-5.4-1.5-9.4c1.6-1.5,3.5-2.8,5.4-3.9
		c55.4-32,111-63.8,166.3-96.2c11.9-7,22.6-16.1,33.7-24.4c4.4-3.3,4.7-7.9,4-13c-4.4-31-8.7-62.1-13-93.1c-1-7.2-2.2-14.3-3.3-21.4
		c-1.1-7.3,0.9-8.9,8.2-7.8c11.6,1.8,18.2,8.6,20.9,19.7c4.6,19,9,38,14,56.8c4.2,16.1,9,32.2,13.8,48.2c1.2,3.9,0.6,6.2-3,8.4
		c-64.3,38.2-125,81.8-186,125c-9.3,6.6-20.1,11-30.2,16.3C667.6,1660.5,665.7,1660.6,663.2,1661.2z"/>
	<path class="st2" d="M556.6,1393.5c-2.4-14.4-5.2-28.8-7.3-43.3c-2.6-17.9-4.6-35.9-7-53.8c-0.7-5.2-2-10.2-2.8-15.4
		c-0.3-2.1-0.3-5.5,0.7-6.1c1.7-0.9,4.8-0.7,6.6,0.2c8.3,4.2,14.6,9.2,16.9,19.9c6.6,30.9,15,61.3,22.6,92c1.7,7,3.4,14.1,4.3,21.3
		c0.3,2.5-0.7,6.2-2.5,7.8c-46.6,42.5-93.2,84.9-140.1,127c-7.9,7.1-16.9,13-25.6,19.2c-3.1,2.2-12.5,0.4-14-2.9
		c-0.7-1.5-0.1-4.5,1.1-5.9c6-7,12.2-13.9,18.8-20.4c20.6-20.4,41.6-40.4,62.3-60.8c18.4-18.1,36.3-36.7,54.9-54.5
		c7.2-6.9,12.6-13.6,9.2-24.4C555.4,1393.4,556,1393.5,556.6,1393.5z"/>
	<path class="st0" d="M1302.1,1915.1c6.6-6,12-11.7,18.2-16.5c41.9-32.4,84-64.5,126-96.7c1-0.7,1.9-1.4,4.1-3.1
		c2.9,7.2,5.8,13.9,8.1,20.8c1.2,3.4,1.1,7.2,2,10.7c4.4,17.1-4.7,28.2-16.5,38.5c-25.3,22.1-50.3,44.5-75.6,66.7
		c-1.7,1.5-4.7,2.3-7.1,2.3c-13.6-0.1-26.1-4.6-38.1-10.4C1316.3,1924.1,1309.9,1919.7,1302.1,1915.1z"/>
	<path class="st2" d="M436.4,1568.2c3.7-2.9,6.8-5.5,9.9-7.9c52.6-39.9,101.4-84.1,147.1-131.7c8.6-9,11.6-17.5,8.9-30.6
		c-7.2-34.7-15.2-69.2-26.5-102.8c-0.6-1.9-1.1-3.8-1.6-5.6c12.7-5,25.3,3.8,28.7,13.5c4,11.7,6.5,24,9.1,36.2
		c4.1,19.3,8.2,38.5,11.6,57.9c1.3,7.2,0.9,14.9,0.4,22.3c-0.2,2.6-2.7,5.2-4.7,7.3c-22.5,22.8-45.3,45.3-67.6,68.3
		c-22.9,23.6-45.3,47.6-67.9,71.4c-0.7,0.7-1.4,1.4-2,2.3c-10.5,15.8-19.4,13.9-36.8,5.3C442,1572.8,439.7,1570.6,436.4,1568.2z"/>
	<path class="st0" d="M438.4,1501.1c1.2-1.5,2.3-3,3.6-4.4c23.7-25.5,47.5-51,71.1-76.6c1.5-1.6,2.6-4.6,2.4-6.8
		c-2.7-24.6-6.2-49.1-8.3-73.8c-2.2-25.6-3-51.4-4.4-77c17.8-3.1,29.4,1.3,31.9,20.6c2.2,16.5,4.7,33,5.9,49.6
		c1.8,23.6,2.4,47.4,3.8,71.1c0.4,6.7-1.9,11.1-7.1,15.4c-31.5,26.4-62.7,53.1-94,79.7c-1.3,1.1-2.7,2-4.1,3
		C438.9,1501.7,438.7,1501.4,438.4,1501.1z"/>
	<path class="st2" d="M1494.3,1751.6c-14.8,7.5-29.2,14.8-44.3,22.5c-10.5-54.6-20.7-107.7-31-161.4c6.2-0.9,12-1.6,17.6,3.6
		c8.4,7.8,14.1,16,16.3,28.1c6,32.2,19.7,62,32.8,91.8C1488,1741,1491,1745.5,1494.3,1751.6z"/>
	<path class="st2" d="M764.9,1700.7c9-4.8,17.9-9.8,27-14.3c47.6-23.6,95.2-47.2,142.9-70.5c5.2-2.6,6.8-5.2,5.9-11.1
		c-1.7-10.9-2.8-21.9-3-32.9c-0.4-22.8,0.4-45.5-0.3-68.3c-0.8-25.1-2.7-50.2-4.1-75.3c-0.1-1.1,0.1-2.3,1.3-3.8
		c0.6,1.2,1.4,2.4,1.8,3.7c11.2,42.8,21.7,85.8,27.2,129.8c1.5,12.2,3.2,24.3,5.4,36.4c0.9,4.7-0.5,7.1-4.4,9.2
		c-30.2,16.5-60.5,32.8-90.5,49.6c-22.6,12.6-44.9,26-67.5,38.6c-8.4,4.7-17.2,9-26.3,12c-4.5,1.5-10.2-0.5-15.3-0.9
		C765,1702.2,764.9,1701.5,764.9,1700.7z"/>
	<path class="st2" d="M1467.4,1861.5c2.8,17.5,5.6,33.9,8,50.4c0.2,1.5-1.2,4.2-2.6,4.9c-23.4,12.1-46.9,24-70.5,35.7
		c-8.7,4.4-24.2,0.7-30.4-6.7c-3.7-4.4-3.4-9.2,1.7-11.6c35.3-16.5,61.7-44.4,90-69.9C1464.5,1863.5,1465.5,1862.9,1467.4,1861.5z"
		/>
	<path class="st0" d="M1564.4,1700.9c-11.9,7.6-23.4,14.9-36.2,23.1c-13.2-29.1-26.5-58.3-39.7-87.4c0.5-0.5,0.9-1,1.4-1.5
		c2.2,0.3,4.6,0,6.5,0.9c15.7,7.2,31.4,14.5,46.9,22c2.2,1.1,4.3,3.2,5.4,5.4c5,10.7,9.7,21.6,14.4,32.5
		C1564,1697.7,1564.1,1699.8,1564.4,1700.9z"/>
	<path class="st2" d="M1514.6,1725.5c0,4.3-6.8,14.1-10.3,14.9c-4.4,1.1-7.3-1.2-8.9-5.2c-3.2-8-5.8-16.3-9.3-24.2
		c-6.9-15.8-14.5-31.4-21.4-47.3c-4.8-11-9-22.3-13.3-33.6c-0.7-1.9-0.2-4.2-0.2-6.3c2.1,0.1,4.1,0.1,6.2,0.4
		c1.2,0.2,2.2,1.1,3.4,1.2c13.3,0.9,19,10,23.4,21c9.5,24.1,19.3,48.1,28.9,72.2C1513.9,1721,1514.2,1723.7,1514.6,1725.5z"/>
	<path class="st2" d="M552.4,1513.5c3.9-4,7.9-7.9,11.6-12c23-25.7,45.9-51.4,68.7-77.2c1.3-1.5,1.8-4.5,1.4-6.4
		c-8.3-36.7-16.8-73.3-25.2-109.9c-0.1-0.4-0.3-0.8-0.3-1.2c0.4-3.1-0.1-6.8,1.5-9.2c1.2-1.9,8.1,3,9,6.8
		c2.9,12.5,5.5,25.1,8.3,37.7c5.6,25.9,11,51.9,16.8,77.8c1,4.6,0.2,7.8-3.2,11.1c-27.7,26.7-55.2,53.6-82.7,80.4
		c-1.3,1.3-2.9,2.4-4.4,3.6C553.3,1514.6,552.8,1514,552.4,1513.5z"/>
	<path class="st2" d="M1418.3,1963.9c21.1-12,41.4-23.6,63.4-36.2c0,13.7,0.2,25.9-0.2,38c-0.1,1.7-2.9,3.7-4.8,5
		c-3.7,2.6-7.4,5.2-11.4,7c-3,1.3-7.1,2.8-9.8,1.8C1443.2,1974.9,1431.3,1969.5,1418.3,1963.9z"/>
	<path class="st2" d="M1571.1,1696.4c-2.6-2.1-4.8-3-5.3-4.5c-3.1-8-5.9-16.2-8.4-24.4c-1-3.3,1.4-5.4,4.4-4.3
		c9.8,3.4,19.6,7,29.1,11.1c1.4,0.6,2.6,5.8,1.9,6.3C1585.9,1686.1,1578.6,1691.1,1571.1,1696.4z"/>
	<path class="st2" d="M435.1,1506.8c-7.6,7.4-13.4,16.8-22.9,22.2c-0.5-0.5-1-1.1-1.5-1.6c7.8-7.3,15.5-14.6,23.3-21.8
		C434.4,1506,434.8,1506.4,435.1,1506.8z"/>
	<path class="st2" d="M1485.5,1981.3c1.2,2.3,2.8,4.4,3.2,6.8c0.1,0.8-3.2,2.7-5,2.9c-1.1,0.1-3.7-2.3-3.5-3.1
		c0.6-2.4,2.2-4.5,3.4-6.7C1484.2,1981.2,1484.8,1981.3,1485.5,1981.3z"/>
	<path class="st2" d="M221.7,1411.5c-5.6-12.6-11.2-25.2-17-38.2c-20,2.8-40.1,5.6-62.1,8.7c7.4-9,13.6-16.6,19.8-24.1
		c2.4-2.9,5.2-5.6,7.6-8.6c9.2-11.6,9.1-18,1.9-30.7c-3.4-6-4.8-13-7.6-21.1c8.7,1.7,16.5,1.9,23,4.8c12.4,5.5,21.5-0.4,32.7-11.6
		c4.1-4.1,7.1-9.2,11.9-13.7c0,1.8,0,3.7,0,5.5c0,11.1,0.5,22.2-0.2,33.2c-0.4,6.8,2,10.1,8,12.5c11.4,4.7,22.3,10.4,30.9,19.5
		c2.6,2.8,4.4,6.3,6.6,9.5c-3.5,1.6-6.9,3.8-10.6,4.7c-7.6,1.7-15.4,2.6-23.2,3.9c-8,1.3-12.2,6.3-13.7,14
		c-2.1,10.5-4.2,20.9-6.3,31.3C222.8,1411.2,222.3,1411.4,221.7,1411.5z"/>
	<path class="st2" d="M1418.4,1139.4c0,11.2,0.4,22.5-0.1,33.6c-0.6,12.9,4.4,22.2,15.3,29.3c8.1,5.2,15.4,11.6,22.7,17.8
		c1.8,1.6,2.3,4.8,3.4,7.2c-2.4,1.1-4.8,2.7-7.3,3.1c-17.4,2.8-28.7,15.4-29.3,33.1c-0.2,5.6,0,11.3,0,16.9c-0.5,0.1-1,0.3-1.5,0.4
		c-1.2-3.8-2.4-7.6-3.6-11.4c-1.6-5.2-2.8-10.5-5-15.4c-2.3-5.5-7.1-8.8-13-7.9c-8.1,1.3-16,3.6-23.8,6c-9.3,2.8-18.5,6.2-29.3,9.9
		c3.8-10.8,6.3-20.6,10.5-29.6c6.6-14.3,7.9-28.4,2-43.2c-1.9-4.8,2.1-5.7,5.2-7c3.9-1.7,8.1-3.2,11.7-5.5
		c15.7-10.3,30.7-21.5,40.4-38.3C1417.3,1138.8,1417.8,1139.1,1418.4,1139.4z"/>
	<path class="st2" d="M1481.1,1216.9c-3-2.1-5.9-4.2-8.9-6.3c-6.7-4.5-13.4-8.9-20-13.4c-3.5-2.4-7.2-4.6-10.2-7.5
		c-2.2-2.1-4.7-5.2-4.8-7.9c-0.4-11.6-0.2-23.2,0.6-34.7c0.2-3.4,3.4-6.7,5.2-10c0.8,0.2,1.6,0.4,2.4,0.6c1.4,8.8,3.8,17.6,4,26.5
		c0.2,10.9,3.2,20.1,10.8,27.8c6.2,6.3,12.3,12.8,18.6,18.9c1.4,1.3,3.7,1.7,5.5,2.5C1483.2,1214.6,1482.2,1215.8,1481.1,1216.9z"/>
	<path class="st2" d="M1441.1,1277.7c0-5,0-8.9,0-13.3C1446.2,1267.4,1446.3,1273.3,1441.1,1277.7z"/>
	<path class="st2" d="M1437,1286.4c4.6,3.9,4.7,8.9,0,13.6C1437,1295.1,1437,1291.2,1437,1286.4z"/>
	<path class="st2" d="M543.3,1832.1c-1.2,3.6-2.5,7.3-4,11.7c7.1,0,14,0,21.3,0c-4.9,9.7-48.2,27.5-70.9,29.1
		c14.1-9.2,27.1-17.6,40.1-26c-0.2-0.4-0.4-0.8-0.6-1.2c-14.9,5-29.9,9.9-44.8,14.9c15.8-16.7,37.9-20.4,57.3-29.7
		C542.3,1831.3,542.8,1831.7,543.3,1832.1z"/>
	<path class="st2" d="M519.7,1813c-3.8,2.5-7.7,4.8-11.4,7.4c-1.1,0.8-1.5,2.4-2.2,3.7c1.6,0.2,3.3,1,4.7,0.5
		c10.3-3.3,20.5-7,30.8-10.2c2.2-0.7,6.3-3.5,6.5,1.2c0.1,2.4-3.8,5.2-6.4,7.2c-1.4,1.1-4.7,0.4-5.6,1.6c-4.3,5.5-9.6,7.4-16.3,6.6
		c-1.9-0.2-4,0.9-5.9,0.8c-3.8-0.3-8-0.2-11.3-1.9c-4-2.1-7.4-5.6-10.4-9c-0.9-1-0.1-5.5,0.5-5.6c8.6-1.8,17.4-3.2,26.1-4.6
		C519.2,1811.4,519.4,1812.2,519.7,1813z"/>
	<path class="st2" d="M521.9,1883.3c5.3-12.2,7.3-13.7,15.5-12C531.9,1883.6,530,1885.1,521.9,1883.3z"/>
	<path class="st2" d="M544.5,1801.2c-5.4,2.6-10.9,5.3-16.6,8.1C527,1801.2,531.9,1798.8,544.5,1801.2z"/>
	<path class="st2" d="M126,1737.7c5.1-1.2,10.3-2.1,15.2-3.8c6-2.1,12.2-4.3,17.6-7.5c8.2-5,6.5-13.5,5.9-21.3
		c-0.3-3.8-0.9-7.6-1.4-11.4c0.7-0.3,1.4-0.6,2.1-0.8c1.7,2.2,3.5,4.4,5.1,6.7c2.2,3.1,4,6.5,6.5,9.4c5.7,6.8,12.3,9.1,21.4,6.2
		c8.8-2.8,18.2-3.6,27.3-5.3c0.4,0.8,0.9,1.6,1.3,2.4c-3.1,2.8-6.2,5.5-9.2,8.4c-1.4,1.4-2.9,2.8-3.8,4.6
		c-5.2,10.2-4.9,11.5,3.2,19.6c4.2,4.2,8.5,8.3,12.8,12.4c-0.3,0.4-0.6,0.8-0.9,1.2c-4.1-2-8-4.3-12.2-6c-3.9-1.6-7.9-3.1-12-3.8
		c-8.2-1.5-10.3,1.3-13,9.3c-2.4,6.9-7.4,12.9-11.2,19.3c-0.7-0.2-1.4-0.5-2.1-0.7c-1.1-5.4-2.3-10.8-3.4-16.2
		c-2.4-12.1-6.4-15.9-18.5-17.7c-10.1-1.5-20.2-3.2-30.3-4.9C126.1,1737.6,126,1737.7,126,1737.7z"/>
	<path class="st0" d="M1746.8,1423.8c-2.5,2.3-4.9,4.9-7.8,6.7c-0.9,0.6-3.2-1-4.9-1.6c0.8-1.3,1.2-3.3,2.3-3.9
		c2.8-1.5,5.9-2.4,8.9-3.6C1745.9,1422.2,1746.4,1423,1746.8,1423.8z"/>
	<path class="st2" d="M1746.4,1855.8c-10-0.1-12.3-1.6-16.1-10.9c-1.9-4.6-4-9.2-5.2-14.1c-0.5-2.3,0.3-5.7,1.9-7.3
		c1.1-1.1,5.1-1,6.7,0.2c7.4,5,14.8,10.3,21.5,16.2c2.5,2.2,5.2,8,4.2,9.4c-2.4,3.1-7,4.5-10.7,6.5
		C1748.2,1856.1,1747.2,1855.8,1746.4,1855.8z"/>
	<path class="st2" d="M1715.7,1839.9c7,4.6,11,10.2,9.3,18.4c-0.3,1.4-1,3.8-1.8,3.9c-8.2,1.5-16.5,2.6-24.8,3.7
		c-0.5,0.1-1-0.6-2.3-1.4C1702.7,1856.2,1709.3,1847.9,1715.7,1839.9z"/>
	<path class="st2" d="M1760.7,1796.9c-0.4,7.2-0.3,13.6-1.4,19.8c-0.9,5-4,5.6-7.7,1.9c-3-3-5.5-6.4-8.7-10.2
		C1747.7,1803.8,1751,1797.6,1760.7,1796.9z"/>
	<path class="st2" d="M1756.1,1874.6c-5.4,0.1-6.5-1.1-8.4-9.4C1754.2,1865.1,1754.7,1869.8,1756.1,1874.6z"/>
	<path class="st2" d="M1723,1818.2c-2.2-1.5-4.5-2.9-7.1-4.7c1.7-1.9,2.8-3.2,4.5-5.2c1.6,3.1,2.9,5.6,4.2,8.1
		C1724,1817,1723.5,1817.6,1723,1818.2z"/>
	<path class="st2" d="M1772.2,1853.6c-2.3-1.3-4.6-2.7-7.6-4.4c1.8-1.9,3.1-3.3,4.9-5.1c1.5,3.1,2.7,5.4,3.9,7.8
		C1772.9,1852.5,1772.6,1853.1,1772.2,1853.6z"/>
	<path class="st2" d="M1042.8,1345.9c-4.5-8.6-9.4-17-13.4-25.8c-2.8-6.1-4.4-7.5-10.4-4.9c-5.1,2.3-9.9,5.2-14.9,7.9
		c-2.1,1.1-4.1,2.2-6.2,3.4c-3.7-7.7,1.3-15.6,16.9-26.1c-3-2.1-5.8-3.8-8.2-5.9c-2.1-1.8-4.5-3.8-5.6-6.2
		c-1.5-3.4-3.8-8.4-2.5-10.7c1.4-2.3,6.8-2.8,10.5-3.1c4-0.4,8,0.4,12,0.4c6.6,0.1,10.8-3.4,13.6-9.2c2.5-5.2,5.6-10.1,9.7-14.9
		c0,6.4,0.8,12.9-0.2,19.1c-2.1,14.2-0.2,18.3,12.5,24.3c3.8,1.8,7.6,4,10.5,6.9c2,2,4.2,6.1,3.4,8.2c-1,2.5-4.8,4.6-7.8,5.5
		c-3.4,1-7.2,0.6-10.8,0.8c-4.1,0.2-6.3,2.4-4.5,6.3c3.7,8.3-0.7,15.5-2.1,23.1C1044.6,1345.3,1043.7,1345.6,1042.8,1345.9z"/>
</g>
</svg>
