<?xml version="1.0" encoding="utf-8"?>
<!-- Generator: Adobe Illustrator 23.0.1, SVG Export Plug-In . SVG Version: 6.00 Build 0)  -->
<svg version="1.1" id="Layer_1" xmlns="http://www.w3.org/2000/svg" xmlns:xlink="http://www.w3.org/1999/xlink" x="0px" y="0px"
	 viewBox="0 0 1920 935" style="enable-background:new 0 0 1920 935;" xml:space="preserve">
<style type="text/css">
	.st0{fill:#B40404;}
	.st1{fill:#1A1A1A;}
	.st2{fill:#FFFFFF;}
</style>
<g>
	<path d="M369.2,463.4c14.5-17.8,27.9-35.2,42.2-51.8c26.1-30.4,52.7-60.5,79.2-90.6c2.6-2.9,3.4-5.7,3.1-9.7
		c-2.8-38.4-5.2-76.8-7.9-115.2c-0.5-7.8-1.8-15.6-3-23.3c-1.2-8.2,0.7-11.2,8.1-14.6c7.3-3.4,14.5-4,22.2-1.3
		c31.9,11.3,64,21.6,95.6,33.6c145.5,55.3,290.9,111,436.4,166.6c109.7,41.9,219.5,83.8,329.2,125.9c65.2,25,130.2,50.4,195.2,75.7
		c10.3,4,20.4,8.6,30.4,13.2c3.2,1.5,6,3.8,9.7,6.2c-3.1,2.6-5.3,4.6-7.5,6.4c-20.3,16.5-40.3,33.5-61.1,49.4
		c-13.7,10.5-28.8,19.3-43.2,28.7c-10.3,6.7-20.5,13.5-30.9,20c-3.1,2-4.2,3.8-3.4,7.8c11.5,61.9,22.8,123.9,34.1,185.9
		c1.1,5.9,1.5,12,1.9,18c0.7,9.3-3.1,14.7-12.4,14.8c-9.3,0.1-19.3-0.4-27.7-3.8c-126.3-49.9-252.4-100.2-378.5-150.7
		c-215.1-86.1-430.3-172.3-645.2-259C413.3,486.8,392.3,474.7,369.2,463.4z M743.5,255c0.1,2.2,0,3.6,0.3,4.9
		c8.2,42.7,16.6,85.3,24.7,128c0.4,2-0.3,5.2-1.7,6.3c-20,15.3-39.3,31.6-60.4,45.2c-29.4,19-60.2,35.8-90.2,53.9
		c-12,7.3-23.7,15.2-35.1,23.5c-8.8,6.3-8.3,12.1,1.5,16.2c10,4.1,20.5,6.8,30.7,10.3c6.2,2.1,11.5,0.9,17.1-2.4
		c61.8-36.3,123.6-72.5,185.5-108.6c16.8-9.8,24.2-23.5,21.5-43.2c-2.8-19.9-4.2-40-6.5-59.9c-1.6-13.6-3.8-27-5.5-40.6
		c-0.6-5.1-3.4-7.5-8.2-9c-19-6-37.9-12.4-56.8-18.7C754.9,259,749.5,257.1,743.5,255z M686.2,573.8c17.8,7.5,34.6,14.5,51.3,21.9
		c3.9,1.7,7,1.6,10.8-0.3c24-11.8,48.3-23.2,72.2-35.2c34.9-17.5,69.6-35.4,104.5-52.9c4.7-2.3,6.4-5.7,6.2-10.6
		c-1.4-24.1-2.7-48.2-4.3-72.2c-1.5-23.1-3.5-46.1-5-69.1c-0.5-8.6-0.4-17.3,0-26c0.3-5.6-1.3-9.1-7.1-10.7
		c-4.6-1.3-8.8-4.1-13.5-5.2c-9.4-2.3-19-3.9-29.7-6c0.9,3.9,1.4,6.2,2.1,8.5c9.1,32.5,18.1,65.1,27.3,97.6c1,3.6,1.1,6-2.6,8.6
		c-69.1,49.1-138.1,98.4-207.1,147.6C689.7,571,688,572.4,686.2,573.8z M951.6,334.5c3.4,14.5,7.1,27.9,9.5,41.5
		c7.5,43.4,14.5,86.9,21.5,130.4c0.9,5.7-1.5,10.4-6.2,13.5c-4.4,2.8-9,5.3-13.8,7.4c-52.8,23-102.1,52.3-150.1,84
		c-3,2-5.5,4.8-8.5,7.6c1.5,1.1,1.9,1.6,2.4,1.9c18.2,8.2,36.3,16.4,54.6,24.3c2,0.8,5.2,0.1,7.3-0.9
		c41.4-21.1,82.9-42.3,124.1-63.9c11.2-5.9,21.6-13.1,32.2-20c1.8-1.2,3.5-4.3,3.2-6.3c-1.7-12.7-4.1-25.4-6.1-38.1
		c-4.7-29.2-9-58.4-14.1-87.5c-4.4-25.1-8-50.5-17.2-74.5c-0.9-2.3-2.1-5.6-4-6.3C975.2,343,963.9,339,951.6,334.5z M1146.7,756
		c9,10.6,24.1,13.9,34.3,6.6c28.8-20.6,57.7-41.2,85.6-62.9c21.6-16.8,41.8-35.4,62.7-53.1c4.3-3.7,5-7.6,3.2-12.8
		c-19.3-55.6-39.5-110.8-65.8-163.6c-2.3-4.7-5-9.2-8.1-13.4c-10-13.3-25.4-18.1-39.9-23.9c-7.7-3.1-12,1.8-9.9,10.6
		c4.4,18.4,8,37.1,14.3,54.9c15.6,44.3,27.5,89.5,37.3,135.4c2.2,10.3-0.1,18.6-6.5,26.3c-3.2,3.8-6.4,7.9-10.1,11.1
		c-21.1,18.4-42.4,36.5-63.5,54.8C1169,735.7,1158,745.8,1146.7,756z M955.3,679.9c18.8,14.4,39.1,22.2,61.3,24
		c4.7,0.4,9.8-4.8,14.7-7.6c0.6-0.3,0.4-1.9,0.7-2.7c1.6-4,2.6-8.5,5.1-11.7c3.7-4.7,8.4-8.6,12.9-12.7
		c25.7-23.2,51.5-46.3,77.3-69.4c8.5-7.6,11.1-17.3,9.3-28c-2.5-15.1-5.4-30.1-8.9-44.9c-6.4-27.2-13.9-54.2-20-81.4
		c-3.3-14.7-4.9-29.7-6.8-44.7c-0.8-6.1-2.7-10.1-8.9-12.7c-12.5-5.1-24.6-11.1-36.9-16.5c-4.5-2-9.1-3.6-14.3-5.7
		c0.2,2,0.2,3,0.5,3.9c14.5,64.5,29.2,129.1,43.5,193.6c1.7,7.8,2.2,15.9,2.3,23.9c0,3.2-2,7.5-4.5,9.3c-16.5,11.6-33,23-50.1,33.7
		c-19.6,12.2-39.9,23.4-59.7,35.5C966.6,669.7,961.3,675,955.3,679.9z M1248.5,800.9c9.7,4.2,18.5,7.8,27.3,11.8
		c3.3,1.5,5.6,1.3,8.7-0.9c49.3-35.3,98.6-70.4,148-105.4c2.9-2,3.5-3.8,2.9-7.4c-7.1-44.5-14-89-21-133.4c-2.5-15.7-4.5-31.5-8-47
		c-1.3-5.8-4.7-12.9-9.4-16c-16.2-10.6-35.2-14.8-54.6-21.4c0.9,3.3,1.3,5.3,2,7.3c2.2,5.6,5,11.1,6.6,16.8
		c14.2,50.7,28.2,101.5,42.5,152.2c1.4,5,0.7,9-2.6,12.8c-7.9,9.1-15.5,18.6-23.9,27.2c-28.6,29.5-59.6,56.5-92,81.8
		C1266.3,786.4,1257.7,793.5,1248.5,800.9z M1101.9,391c0.9,4.1,1.3,6.6,1.9,9.1c6.1,23.4,12,46.8,18.3,70.1
		c10.4,38.9,21.1,77.7,31.5,116.5c0.6,2.2,0.7,5.7-0.6,7c-9.8,10.2-19.4,20.5-30.1,29.7c-21.2,18.2-43.1,35.7-64.8,53.5
		c-10.3,8.4-20.6,16.7-30.9,25.1c-1.7,1.4-4.9,3.5-4.6,4.5c0.6,2.4,2.5,4.9,4.7,6.3c9.8,6.3,19.8,7.2,30,0.5c4-2.7,8.4-4.9,12.3-7.6
		c34.5-23.4,69-46.8,103.4-70.4c8.9-6.1,17.5-12.9,25.9-19.8c5.9-4.7,8.4-11.1,7-18.8c-0.7-3.8-0.8-7.7-1.9-11.3
		c-15.8-55.6-34-110.4-56.1-163.8c-1.7-4.2-4.6-8-7.4-11.6C1130.9,397.9,1115.2,398.8,1101.9,391z M1275.3,457.7
		c7.6,20.2,13.6,38.8,21.6,56.6c18.5,41.3,38,82.1,57,123.2c0.7,1.6,0.8,4.6-0.2,5.6c-9.9,10.3-19.4,21.2-30.5,30.2
		c-31.3,25.3-63.3,49.8-95.2,74.4c-11.8,9.1-24.1,17.8-36.7,27c8.9,4.5,17.2,8,24.9,12.7c12.5,7.6,22.9,4.4,33.3-4.2
		c24-19.6,48.8-38.2,72.2-58.5c18.8-16.3,36.2-34.3,53.7-52.1c4.6-4.6,9.3-10.3,7.3-18.1c-13.8-54.1-27.8-108.3-41.4-162.5
		c-1.4-5.6-4-9.3-9.3-11.6c-14.7-6.4-29.4-13.2-44.2-19.5C1284.6,459.6,1280.8,459.1,1275.3,457.7z M631.9,210.1
		c0.5,3.3,0.6,4.8,0.9,6.4c8.2,39.2,16.4,78.4,24.3,117.6c0.5,2.4-0.7,6.2-2.4,7.8c-53.6,48.2-107.5,96.2-161.2,144.3
		c-2.6,2.3-4.8,5.1-7,7.3c10,4.3,19.5,7.8,28.5,12.5c4.9,2.6,7.8,2,11.6-1.5c9.4-8.8,19.1-17.3,28.7-25.9
		c29.3-26.2,58.9-51.9,91.4-74.2c14.6-10,29.3-20,43.6-30.3c2.4-1.7,4.8-5.3,4.9-8.2c1.3-21.6-0.9-43-3.8-64.4
		c-2.2-16.5-3.3-33.2-4.7-49.8c-0.3-4-0.2-8.1,0-12.1c0.1-5.4-1.7-9-7.2-11.1c-6.6-2.4-12.7-6-19.3-8.6
		C651.3,216.6,642.2,213.7,631.9,210.1z M1067.1,725.6c3.8,1.6,6.4,2.7,8.9,3.8c15.5,6.7,31.3,12.9,46.4,20.5
		c5.7,2.8,8.9,2.9,13.6-1.3c20.4-18.2,41.4-35.9,61.9-54c17.4-15.4,36.4-29.4,49.8-49c2.2-3.2,2.7-5.8,1.9-9.4
		c-11.2-46.3-22.2-92.7-33.4-139c-5.1-21.3-10-42.6-15.5-63.8c-0.9-3.3-3.7-6.9-6.6-8.8c-9.8-6.5-21.3-7.8-33.4-9.9
		c1.2,3.2,2.1,5.6,3.1,7.9c24.7,59.4,44.6,120.3,57.5,183.4c0.6,3.1,0.1,7.7-1.8,9.9c-5.9,6.8-12.2,13.6-19.4,18.8
		c-25,18-50.4,35.4-75.8,52.8C1105.6,700,1086.8,712.4,1067.1,725.6z M885.2,654.6c2.1,1.1,3.2,1.8,4.5,2.3
		c11.2,4.4,22.6,8.5,33.7,13.3c4.6,2,7.9,1.5,12.2-1.1c42.1-25.2,84.3-50.4,126.8-74.8c8.1-4.7,10.7-9.8,8.8-18.2
		c-0.1-0.4-0.1-0.8-0.1-1.2c-5.3-29.5-10.2-59.1-16.1-88.5c-7.5-37.3-16-74.3-23.5-111.6c-2-9.7-5.4-16.4-16.2-17.3
		c-2.1-0.2-4.2-1.2-6.3-2c-6.2-2.2-7.8-1.3-6.9,5.3c1.3,10.2,3,20.3,5,30.3c6,30.3,12.5,60.6,18.3,91c4.7,24.7,8.8,49.4,13,74.2
		c0.4,2.2-0.2,5.6-1.7,7c-6,5.5-12.1,11.4-19.1,15.4c-42.3,24.2-84.8,47.9-127.2,71.9C888.6,651.5,887.3,653,885.2,654.6z
		 M703.1,326.9c-0.4,0-0.9,0.1-1.3,0.1c0,9.1,0.1,18.1,0,27.2c-0.2,11.9-1.4,23.5-12.2,31.2c-2.9,2.1-5.6,4.6-8.5,6.7
		c-12.4,8.9-25.6,16.9-37.2,26.8c-34.3,29.3-67.9,59.3-101.7,89.2c-1.7,1.5-2.3,4.1-3.4,6.2c2.5,0.7,5.3,2.5,7.5,1.9
		c5.9-1.7,11.8-4.1,17.3-6.9c33.2-16.6,63.4-38.1,94.4-58.4c32.5-21.3,65-42.4,97.7-63.5c4.3-2.8,5.1-5.5,3.9-10.4
		c-8.9-34.5-18-68.9-25.8-103.6c-3.7-16.3-11.9-27.8-26.9-34.6c-2.4-1.1-5.3-1.3-7.9-1.9c-0.4,2.7-1.4,5.4-1.2,8.1
		C699.3,272.4,701.2,299.7,703.1,326.9z M663.2,565.1c2.5-0.6,4.4-0.7,5.9-1.5c10.2-5.3,20.9-9.8,30.2-16.3
		c61-43.2,121.7-86.7,186-125c3.7-2.2,4.2-4.5,3-8.4c-4.8-16-9.6-32-13.8-48.2c-5-18.9-9.4-37.9-14-56.8
		c-2.7-11.1-9.3-17.9-20.9-19.7c-7.4-1.1-9.4,0.5-8.2,7.8c1.1,7.2,2.3,14.3,3.3,21.4c4.4,31,8.6,62.1,13,93.1c0.7,5.1,0.4,9.8-4,13
		c-11.1,8.3-21.8,17.4-33.7,24.4c-55.2,32.4-110.8,64.1-166.3,96.2c-1.9,1.1-3.8,2.4-5.4,3.9c-4.4,4.1-4.1,7.5,1.5,9.4
		C647.7,561.1,655.8,563,663.2,565.1z M556.6,297.4c-0.6,0-1.3-0.1-1.9-0.1c3.4,10.8-2,17.5-9.2,24.4
		c-18.6,17.9-36.5,36.4-54.9,54.5c-20.7,20.4-41.6,40.4-62.3,60.8c-6.6,6.5-12.7,13.4-18.8,20.4c-1.2,1.4-1.8,4.4-1.1,5.9
		c1.6,3.3,11,5.1,14,2.9c8.7-6.2,17.7-12.1,25.6-19.2c46.9-42.1,93.6-84.5,140.1-127c1.8-1.6,2.8-5.3,2.5-7.8
		c-1-7.2-2.6-14.2-4.3-21.3c-7.6-30.7-16-61.1-22.6-92c-2.3-10.7-8.6-15.7-16.9-19.9c-1.9-0.9-5-1.2-6.6-0.2c-1.1,0.6-1,4-0.7,6.1
		c0.7,5.2,2.1,10.2,2.8,15.4c2.4,17.9,4.4,35.9,7,53.8C551.5,268.6,554.2,282.9,556.6,297.4z M1302.1,819
		c7.8,4.6,14.2,8.9,21.1,12.2c12,5.8,24.5,10.3,38.1,10.4c2.4,0,5.4-0.7,7.1-2.3c25.3-22.1,50.3-44.6,75.6-66.7
		c11.8-10.3,21-21.4,16.5-38.5c-0.9-3.5-0.9-7.3-2-10.7c-2.4-6.9-5.3-13.5-8.1-20.8c-2.2,1.6-3.2,2.3-4.1,3.1
		c-42,32.2-84.1,64.4-126,96.7C1314.1,807.3,1308.7,813,1302.1,819z M436.4,472.1c3.3,2.3,5.7,4.6,8.5,6
		c17.5,8.6,26.3,10.5,36.8-5.3c0.6-0.8,1.3-1.5,2-2.3c22.6-23.8,45-47.8,67.9-71.4c22.3-23,45.1-45.5,67.6-68.3
		c2-2.1,4.6-4.8,4.7-7.3c0.5-7.4,0.9-15-0.4-22.3c-3.4-19.4-7.4-38.7-11.6-57.9c-2.6-12.1-5.1-24.4-9.1-36.2
		c-3.3-9.7-16-18.5-28.7-13.5c0.5,1.8,1,3.8,1.6,5.6c11.3,33.6,19.3,68.1,26.5,102.8c2.7,13-0.3,21.6-8.9,30.6
		c-45.7,47.7-94.5,91.8-147.1,131.7C443.1,466.7,440.1,469.2,436.4,472.1z M438.4,405c0.3,0.3,0.6,0.6,0.8,0.9c1.4-1,2.8-1.9,4.1-3
		c31.3-26.6,62.5-53.3,94-79.7c5.2-4.3,7.5-8.8,7.1-15.4c-1.4-23.7-2-47.4-3.8-71.1c-1.2-16.6-3.7-33.1-5.9-49.6
		c-2.6-19.2-14.1-23.6-31.9-20.6c1.4,25.6,2.2,51.4,4.4,77c2.1,24.7,5.6,49.2,8.3,73.8c0.2,2.2-0.9,5.1-2.4,6.8
		c-23.6,25.6-47.4,51.1-71.1,76.6C440.7,402,439.6,403.6,438.4,405z M1494.3,655.5c-3.3-6-6.3-10.5-8.5-15.4
		c-13.1-29.8-26.8-59.6-32.8-91.8c-2.3-12.1-7.9-20.3-16.3-28.1c-5.6-5.2-11.4-4.5-17.6-3.6c10.3,53.7,20.5,106.8,31,161.4
		C1465,670.3,1479.4,663,1494.3,655.5z M764.9,604.6c0,0.7,0.1,1.5,0.1,2.2c5.1,0.4,10.8,2.4,15.3,0.9c9.1-3,17.9-7.3,26.3-12
		c22.6-12.6,44.9-26,67.5-38.6c30-16.8,60.3-33.1,90.5-49.6c3.9-2.1,5.2-4.6,4.4-9.2c-2.2-12.1-3.9-24.2-5.4-36.4
		c-5.5-44-16-87-27.2-129.8c-0.3-1.3-1.2-2.5-1.8-3.7c-1.2,1.5-1.4,2.7-1.3,3.8c1.4,25.1,3.3,50.2,4.1,75.3
		c0.7,22.7-0.2,45.5,0.3,68.3c0.2,11,1.3,22.1,3,32.9c0.9,5.9-0.7,8.5-5.9,11.1c-47.7,23.3-95.3,46.9-142.9,70.5
		C782.8,594.9,773.9,599.8,764.9,604.6z M1467.4,765.4c-1.9,1.4-2.9,2-3.8,2.8c-28.3,25.5-54.7,53.4-90,69.9
		c-5.1,2.4-5.4,7.1-1.7,11.6c6.2,7.4,21.7,11,30.4,6.7c23.6-11.7,47.1-23.7,70.5-35.7c1.4-0.7,2.8-3.4,2.6-4.9
		C1473,799.3,1470.2,782.9,1467.4,765.4z M1564.4,604.8c-0.3-1.2-0.4-3.2-1.2-5c-4.7-10.9-9.4-21.8-14.4-32.5
		c-1-2.2-3.2-4.4-5.4-5.4c-15.5-7.5-31.2-14.8-46.9-22c-1.9-0.9-4.3-0.6-6.5-0.9c-0.5,0.5-0.9,1-1.4,1.5
		c13.2,29.2,26.5,58.3,39.7,87.4C1541.1,619.8,1552.5,612.5,1564.4,604.8z M1514.6,629.4c-0.4-1.8-0.6-4.5-1.6-6.9
		c-9.6-24.1-19.4-48.1-28.9-72.2c-4.3-11-10.1-20-23.4-21c-1.2-0.1-2.2-1-3.4-1.2c-2-0.3-4.1-0.3-6.2-0.4c0.1,2.1-0.5,4.4,0.2,6.3
		c4.3,11.3,8.5,22.6,13.3,33.6c6.9,15.9,14.4,31.4,21.4,47.3c3.5,7.9,6.1,16.2,9.3,24.2c1.6,4,4.5,6.3,8.9,5.2
		C1507.8,643.5,1514.5,633.7,1514.6,629.4z M552.4,417.4c0.5,0.5,0.9,1.1,1.4,1.6c1.5-1.2,3-2.3,4.4-3.6
		c27.6-26.8,55.1-53.7,82.7-80.4c3.5-3.3,4.3-6.5,3.2-11.1c-5.8-25.9-11.2-51.9-16.8-77.8c-2.7-12.6-5.4-25.2-8.3-37.7
		c-0.9-3.9-7.8-8.7-9-6.8c-1.6,2.4-1.1,6.1-1.5,9.2c0,0.4,0.2,0.8,0.3,1.2c8.4,36.6,16.9,73.3,25.2,109.9c0.4,2-0.1,5-1.4,6.4
		c-22.8,25.8-45.7,51.5-68.7,77.2C560.2,409.5,556.2,413.4,552.4,417.4z M1418.3,867.8c13.1,5.6,24.9,11,37.1,15.5
		c2.7,1,6.8-0.5,9.8-1.8c4.1-1.8,7.8-4.4,11.4-7c1.9-1.3,4.8-3.3,4.8-5c0.4-12.1,0.2-24.3,0.2-38
		C1459.6,844.2,1439.3,855.8,1418.3,867.8z M1571.1,600.3c7.5-5.3,14.8-10.3,21.7-15.8c0.7-0.6-0.5-5.7-1.9-6.3
		c-9.5-4.1-19.3-7.7-29.1-11.1c-3.1-1.1-5.4,1-4.4,4.3c2.5,8.2,5.3,16.4,8.4,24.4C1566.3,597.3,1568.5,598.2,1571.1,600.3z
		 M435.1,410.7c-0.4-0.4-0.7-0.8-1.1-1.2c-7.8,7.3-15.5,14.6-23.3,21.8c0.5,0.5,1,1.1,1.5,1.6C421.7,427.5,427.5,418.1,435.1,410.7z
		 M1485.5,885.2c-0.7,0-1.3,0-2-0.1c-1.2,2.2-2.8,4.3-3.4,6.7c-0.2,0.8,2.4,3.2,3.5,3.1c1.9-0.2,5.1-2.1,5-2.9
		C1488.3,889.6,1486.6,887.4,1485.5,885.2z"/>
	<path d="M231.6,360.4c-7.7-9.4-14.4-17.9-17.6-28.9c-1.7-6-4.2-11.7-6.4-17.6c-3.6-9.7-9.1-13.6-19.4-12.1
		c-16.1,2.3-32.1,5.6-48.1,8.2c-5.9,1-11.9,1.5-17.9,2c-3.2,0.3-4.6-1.5-3-4.5c4.2-8.2,7.7-16.8,13-24.2c9.5-13.2,20-25.7,30.4-38.3
		c2.3-2.8,2.7-4.9,0.8-7.9c-10.3-16.5-14.9-35.1-18.9-53.8c-0.6-2.7,0.1-6.9,1.9-8.6c1.8-1.6,5.9-1.7,8.7-1
		c13.8,3.3,27.6,7.2,41.3,10.8c9.1,2.4,15.8,0,21.7-8.2c7.9-11,14.9-23.2,27.6-29.8c1-0.5,2-1,3.8-1.9c0.6,16.5,0.5,32.2-6.8,46.9
		c-2.9,5.8-2.1,11.4,2.3,15.5c4.6,4.3,10.4,7.5,15.5,11.3c15.7,11.6,31.3,23.2,47,34.8c0.9,0.7,1.6,1.8,2.4,2.7
		c7.5,9,6.5,15.6-4.4,20.4c-8.6,3.8-17.7,6.5-26.8,9.1c-11.2,3.2-22.7,5.6-33.9,8.8c-1.8,0.5-4.1,3.1-4.4,5
		C237.2,319,234.5,339.1,231.6,360.4z M221.7,315.4c0.6-0.1,1.1-0.3,1.7-0.4c2.1-10.4,4.2-20.9,6.3-31.3c1.5-7.7,5.8-12.7,13.7-14
		c7.7-1.3,15.5-2.2,23.2-3.9c3.7-0.8,7.1-3.1,10.6-4.7c-2.2-3.2-4-6.7-6.6-9.5c-8.6-9.2-19.5-14.8-30.9-19.5c-6-2.5-8.4-5.8-8-12.5
		c0.7-11,0.2-22.1,0.2-33.2c0-1.8,0-3.7,0-5.5c-4.8,4.5-7.9,9.6-11.9,13.7c-11.2,11.2-20.2,17.1-32.7,11.6c-6.5-2.9-14.3-3.1-23-4.8
		c2.8,8.1,4.2,15.2,7.6,21.1c7.2,12.8,7.3,19.1-1.9,30.7c-2.4,3-5.1,5.7-7.6,8.6c-6.3,7.5-12.4,15.1-19.8,24.1
		c22-3.1,42.1-5.9,62.1-8.7C210.5,290.2,216.1,302.8,221.7,315.4z"/>
	<path d="M1467.3,48.1c-0.6,4.6-0.8,9.2-1.7,13.7c-2.2,10.2,0.4,18.6,7.9,25.8c10.1,9.8,19.9,20,29.9,30c4.4,4.5,4.1,6.7-1.5,9.2
		c-2.9,1.3-6.2,1.8-9.2,2.7c-5.3,1.6-10.6,3.3-16,4.8c-8.2,2.3-10.2,8.1-11.4,16c-2.8,17.4-6.8,34.7-10.8,51.9
		c-0.4,1.8-3.2,3.8-5.3,4.4c-8.2,2.1-16.5,3.6-24.7,5.5c-8.9,2.1-12.5,0.1-15.7-8.5c-4.8-12.6-9.8-25.1-14.6-37.6
		c-1.4-3.6-3.3-4.7-7.4-3.4c-14.6,4.6-29.2,9.1-44,13c-4.3,1.1-11.6,1.7-13.3-0.6c-2.3-3-1.8-9.7-0.2-13.9c3-7.8,6.9-15.5,11.8-22.1
		c7.9-10.8,8.3-21,1.8-32.5c-3.6-6.4-6.3-13.5-8.2-20.6c-1.9-7.1,1.5-10.6,9-10.5c3.6,0,7.2,0.7,10.8,1.2c10,1.5,18.9-0.9,26.3-7.7
		c10.6-9.6,21.1-19.4,31.2-29.4c10.2-10,21.7-13.2,35.4-8.8c3.2,1,6.7,1.6,10,1.8c7.3,0.5,8.9,1.8,9.3,8.9c0.1,2.2,0,4.4,0,6.6
		C1466.9,48,1467.1,48.1,1467.3,48.1z M1418.4,43.3c-0.6-0.3-1.1-0.6-1.7-0.9c-9.7,16.8-24.7,28-40.4,38.3
		c-3.6,2.3-7.7,3.7-11.7,5.5c-3.1,1.4-7.1,2.3-5.2,7c5.9,14.7,4.5,28.9-2,43.2c-4.1,9-6.7,18.7-10.5,29.6c10.8-3.7,20-7.1,29.3-9.9
		c7.8-2.4,15.8-4.7,23.8-6c5.9-1,10.7,2.4,13,7.9c2.1,5,3.3,10.3,5,15.4c1.2,3.8,2.4,7.6,3.6,11.4c0.5-0.1,1-0.3,1.5-0.4
		c0-5.6-0.2-11.3,0-16.9c0.6-17.7,11.9-30.2,29.3-33.1c2.5-0.4,4.9-2,7.3-3.1c-1.1-2.5-1.6-5.7-3.4-7.2
		c-7.3-6.3-14.7-12.6-22.7-17.8c-10.9-7-15.9-16.3-15.3-29.3C1418.8,65.7,1418.4,54.5,1418.4,43.3z M1481.1,120.8
		c1-1.2,2.1-2.3,3.1-3.5c-1.9-0.8-4.2-1.2-5.5-2.5c-6.3-6.2-12.4-12.6-18.6-18.9c-7.6-7.7-10.5-16.9-10.8-27.8
		c-0.2-8.9-2.6-17.7-4-26.5c-0.8-0.2-1.6-0.4-2.4-0.6c-1.8,3.3-4.9,6.5-5.2,10c-0.8,11.5-0.9,23.2-0.6,34.7c0.1,2.7,2.6,5.8,4.8,7.9
		c3,2.9,6.7,5.1,10.2,7.5c6.6,4.5,13.4,8.9,20,13.4C1475.2,116.6,1478.2,118.8,1481.1,120.8z M1441.1,181.6c5.2-4.3,5.1-10.3,0-13.3
		C1441.1,172.6,1441.1,176.5,1441.1,181.6z M1437,190.3c0,4.8,0,8.7,0,13.6C1441.7,199.1,1441.6,194.2,1437,190.3z"/>
	<path d="M608.8,769.6c-16.7,4.5-32.9,5.3-49.1,4.9c-8-0.2-8.6,0-7.8,7.7c1.4,14.5-4,27.3-8.8,40.3c-3.6,9.7-10.4,10.7-16.3,2.1
		c-6.4-9.2-12.1-19-17.1-29.1c-5.8-11.6-9.1-14-21.8-11.2c-8.2,1.8-16.3,4.6-24.5,6.5c-4,0.9-8.3,1.1-12.5,1.3
		c-3.3,0.2-4.4-1.8-3-4.7c1-2.2,2.2-4.4,3.8-6.1c9.8-11.2,19.5-22.5,29.7-33.4c3.2-3.4,3.6-5.7,1.4-9.8c-7.8-14-15.1-28.3-23.6-44.4
		c15.2,3.5,29.6,5.5,43,10.2c10.5,3.7,17.7,2.7,26.5-4.4c8.8-7.1,19.7-11.4,29.8-16.9c3.7-2.1,5.5,0.5,6.1,3.3
		c1.8,9,3.3,18.2,4.7,27.3c0.3,1.8,0.4,3.6,0.2,5.4c-1.9,15.7,5.3,26.5,17.8,35C594.3,758.4,601.1,763.9,608.8,769.6z M543.3,736
		c-0.5-0.4-1.1-0.8-1.6-1.2c-19.4,9.2-41.5,13-57.3,29.7c14.9-5,29.9-9.9,44.8-14.9c0.2,0.4,0.4,0.8,0.6,1.2
		c-13,8.4-26,16.9-40.1,26c22.7-1.6,66-19.4,70.9-29.1c-7.2,0-14.1,0-21.3,0C540.9,743.3,542.1,739.7,543.3,736z M519.7,716.9
		c-0.3-0.8-0.5-1.7-0.8-2.5c-8.7,1.5-17.4,2.8-26.1,4.6c-0.6,0.1-1.4,4.6-0.5,5.6c3,3.4,6.4,6.9,10.4,9c3.2,1.7,7.4,1.6,11.3,1.9
		c1.9,0.2,4-1,5.9-0.8c6.7,0.8,12.1-1.1,16.3-6.6c0.9-1.2,4.2-0.5,5.6-1.6c2.6-2,6.4-4.8,6.4-7.2c-0.2-4.7-4.4-1.9-6.5-1.2
		c-10.3,3.2-20.5,6.9-30.8,10.2c-1.4,0.4-3.1-0.3-4.7-0.5c0.7-1.2,1.2-2.9,2.2-3.7C512,721.7,515.9,719.4,519.7,716.9z M521.9,787.2
		c8.2,1.8,10.1,0.3,15.5-12C529.1,773.5,527.1,775,521.9,787.2z M544.5,705.1c-12.5-2.4-17.5,0.1-16.6,8.1
		C533.6,710.3,539.1,707.7,544.5,705.1z"/>
	<path class="st0" d="M126,641.6c7.1-5.9,14.1-11.8,21.2-17.6c5.8-4.7,6.2-10.8,6.1-17.9c-0.1-8.7,1.5-17.4,3.1-26
		c0.7-3.5,4.4-4.2,7.4-2.4c2.7,1.6,5.2,3.8,7.4,6c7.2,7.5,14.4,15.2,21.4,23c2.6,2.9,4.9,3.5,8.2,1.4c9.7-6.2,20.7-8.5,31.8-10.4
		c6.4-1.1,9.1,1.3,6.1,7.1c-3.7,7.1-8.6,13.8-14.1,19.7c-3.1,3.3-3.8,5.4-0.9,8.4c5.2,5.3,10.2,10.9,15.9,15.5
		c10.4,8.5,9.2,21.7-3,27.6c-1.3,0.6-3.1,0.3-4.6,0c-7.3-1.5-14.6-2.9-21.8-4.8c-10.3-2.7-13.1-0.6-17.4,9.2
		c-3.4,7.6-7.9,14.9-13.3,21.1c-5.5,6.4-10.6,5-13.1-3.2c-2.2-6.9-3.3-14.1-4.8-21.1c-1.5-7.4-8.2-13.5-15.6-14.4
		c-8.8-1.1-17.5-2.5-26.3-3.3c-4.9-0.5-5.6-3.6-3.7-6.5c2.7-4.2,6.6-7.7,10-11.5c10.1,1.6,20.2,3.4,30.3,4.9
		c12.1,1.8,16.2,5.6,18.5,17.7c1.1,5.4,2.2,10.8,3.4,16.2c0.7,0.2,1.4,0.5,2.1,0.7c3.8-6.4,8.8-12.4,11.2-19.3
		c2.8-8,4.8-10.8,13-9.3c4.1,0.7,8.1,2.2,12,3.8c4.2,1.7,8.1,4,12.2,6c0.3-0.4,0.6-0.8,0.9-1.2c-4.3-4.1-8.6-8.2-12.8-12.4
		c-8.1-8.1-8.3-9.4-3.2-19.6c0.9-1.7,2.4-3.2,3.8-4.6c3-2.9,6.1-5.6,9.2-8.4c-0.4-0.8-0.9-1.6-1.3-2.4c-9.1,1.7-18.5,2.5-27.3,5.3
		c-9.1,2.9-15.7,0.7-21.4-6.2c-2.4-2.9-4.3-6.3-6.5-9.4c-1.6-2.3-3.4-4.5-5.1-6.7c-0.7,0.3-1.4,0.6-2.1,0.8
		c0.5,3.8,1.2,7.6,1.4,11.4c0.5,7.8,2.2,16.3-5.9,21.3c-5.4,3.3-11.5,5.4-17.6,7.5C136.3,639.5,131.1,640.3,126,641.6z"/>
	<path class="st0" d="M1797.9,366.9c-11.5,1.1-23,2.6-34.5,3.2c-14.4,0.7-16.1,2-20.4,15.5c-1.8,5.6-4.8,11.1-8.4,15.8
		c-3.8,5.2-8.5,5.1-12.6,0c-3.4-4.4-6.1-9.4-8.6-14.5c-2.3-4.8-5-5.9-10.1-3.9c-5.4,2.1-11.1,3.4-16.8,4.4c-2,0.4-4.3-1.1-6.5-1.7
		c0.6-2,0.7-4.4,1.9-6c5.7-7.5,11.5-14.9,17.5-22.2c2.8-3.4,3.2-6.4,0.7-10.2c-5.5-8.4-10.9-16.8-15.7-25.6c-2-3.6-2.2-8.1-3.3-12.2
		c4.2,0,8.9-1.1,12.7,0.3c10.5,4,20.6,9,30.7,13.9c3.6,1.8,6.1,1.8,9.2-0.7c4.2-3.4,8.7-6.5,13.1-9.7c7-5,12.4-3,13.9,5.5
		c0.7,3.7,0.6,7.6,0.1,11.4c-2.1,14.9-0.2,18.7,13.6,24.9c7.8,3.5,15.7,6.7,23.6,10C1798.1,365.7,1798,366.3,1797.9,366.9z
		 M1746.8,327.7c-0.4-0.8-0.9-1.6-1.3-2.3c-3,1.1-6.1,2-8.9,3.6c-1.1,0.6-1.6,2.6-2.3,3.9c1.7,0.6,3.9,2.1,4.9,1.6
		C1741.9,332.6,1744.3,330,1746.8,327.7z"/>
	<path d="M1760.4,809.7c-7-9-13.2-16.4-18.6-24.3c-5.7-8.3-12.6-9.9-22-7.4c-8.7,2.3-17.7,3.6-26.7,4.6c-3.5,0.4-7.2-1.3-10.7-2.1
		c1-3.7,1.1-7.9,3.1-11c5.9-9.3,12.6-18.1,18.9-27.2c5.8-8.4,6.7-17.4,3.6-27c-1.1-3.6-1.8-7.5-2.1-11.2c-0.6-8.1,2.2-9.9,9.6-6.3
		c2.9,1.4,5.5,3.4,8.1,5.1c7.1,4.7,9.5,4.6,16-1c9.3-8,18.6-15.9,29-24.8c0.2,3.3,0.4,5.2,0.4,7c0,16.1,0.2,32.2-0.1,48.3
		c-0.1,4.8,1.1,7.7,5.9,9.6c8.3,3.3,15.7,8,21,15.5c4,5.8,3.6,8.9-3.1,10.6c-6.1,1.5-12.6,1.7-19,1.9c-9,0.3-12.3,2.7-13.1,12
		c-0.6,7.4-0.3,14.9-0.3,22.3C1760.4,805.5,1760.4,806.6,1760.4,809.7z M1746.4,759.7c0.8,0,1.8,0.3,2.4,0c3.8-2,8.4-3.4,10.7-6.5
		c1-1.4-1.7-7.2-4.2-9.4c-6.7-5.9-14.1-11.2-21.5-16.2c-1.7-1.1-5.6-1.3-6.7-0.2c-1.6,1.6-2.5,5.1-1.9,7.3c1.1,4.8,3.3,9.4,5.2,14.1
		C1734.1,758.1,1736.4,759.6,1746.4,759.7z M1715.7,743.8c-6.4,8.1-13,16.3-19.6,24.6c1.3,0.8,1.8,1.5,2.3,1.4
		c8.3-1.1,16.6-2.2,24.8-3.7c0.8-0.1,1.5-2.5,1.8-3.9C1726.8,754,1722.8,748.4,1715.7,743.8z M1760.7,700.8c-9.7,0.7-13,7-17.8,11.5
		c3.2,3.8,5.7,7.2,8.7,10.2c3.7,3.7,6.8,3.1,7.7-1.9C1760.4,714.4,1760.3,708,1760.7,700.8z M1756.1,778.5c-1.3-4.8-1.9-9.5-8.4-9.4
		C1749.6,777.4,1750.6,778.6,1756.1,778.5z M1723,722.1c0.5-0.6,1-1.2,1.5-1.8c-1.3-2.5-2.6-5-4.2-8.1c-1.7,2-2.8,3.3-4.5,5.2
		C1718.5,719.2,1720.8,720.6,1723,722.1z M1772.2,757.5c0.4-0.6,0.8-1.1,1.1-1.7c-1.2-2.4-2.4-4.8-3.9-7.8c-1.8,1.9-3,3.2-4.9,5.1
		C1767.5,754.8,1769.9,756.2,1772.2,757.5z"/>
	<path d="M1017.9,236.7c-7.7,0-15.2,0.4-22.6-0.1c-5.5-0.4-12.1-0.6-14.6-6.6c-2.5-5.9,2.3-10.1,5.8-14.2c1.2-1.4,2.2-2.9,3.2-4.4
		c6.1-9.3,6-9.8-3.7-15.2c-8.2-4.6-9.5-12.9-1.9-18.5c4.5-3.3,10.5-4.6,15.8-7c8.5-3.8,16.9-7.6,25.4-11.4c6.3-2.8,12.4-6.9,19-8.3
		c12.6-2.5,21.4,6.6,18.2,18.9c-2.9,11.2-0.4,18.4,10,23.9c4.6,2.4,8.4,6.9,11.8,11c4.7,5.7,4.1,10.9-2.1,14.9
		c-9.4,6.1-14.3,14.9-17.4,25.1c-1.3,4.2-3.6,6.7-7.6,8.5c-7.4,3.2-14.1,8.8-22.8,2.4C1027.5,250.6,1020.9,246,1017.9,236.7z
		 M1042.8,249.8c0.9-0.3,1.7-0.6,2.6-0.9c1.4-7.6,5.8-14.8,2.1-23.1c-1.8-3.9,0.4-6.1,4.5-6.3c3.6-0.2,7.4,0.3,10.8-0.8
		c3-0.9,6.8-3,7.8-5.5c0.8-2-1.3-6.2-3.4-8.2c-2.9-2.9-6.7-5.1-10.5-6.9c-12.7-6-14.6-10.1-12.5-24.3c0.9-6.3,0.2-12.8,0.2-19.1
		c-4.1,4.8-7.2,9.7-9.7,14.9c-2.8,5.8-7,9.3-13.6,9.2c-4-0.1-8.1-0.8-12-0.4c-3.7,0.4-9.2,0.8-10.5,3.1c-1.4,2.3,0.9,7.3,2.5,10.7
		c1.1,2.4,3.5,4.4,5.6,6.2c2.4,2.1,5.2,3.8,8.2,5.9c-15.6,10.5-20.5,18.3-16.9,26.1c2.1-1.1,4.1-2.2,6.2-3.4c5-2.7,9.8-5.6,14.9-7.9
		c6-2.7,7.6-1.2,10.4,4.9C1033.4,232.8,1038.3,241.2,1042.8,249.8z"/>
	<path d="M297,214.5c-4.6-1.6-10.1-2.9-15-5.4c-5.4-2.7-6.9-8-4.8-13.4c2.1-5.2,6.4-6.8,11.3-5.4c6.7,1.8,13.4,4,19.8,6.8
		c2.1,0.9,4.8,4.4,4.4,6.1c-0.7,3.2-2.9,6.6-5.5,8.5C304.8,213.6,301.1,213.5,297,214.5z"/>
	<path d="M104,227.4c4.4,1.2,8.9,2.2,13.3,3.7c7.8,2.7,10.4,6.5,8.9,12c-2.6,9.4-7.1,12.6-15.7,10.5c-6.8-1.6-12.6-5.3-14.9-12
		C92.6,233.4,92.3,227.5,104,227.4z"/>
	<path d="M204.3,165.3c-10.6-9.3-10-41.2,0.9-47.7C213.7,127.9,213.2,154.7,204.3,165.3z"/>
	<path d="M181.3,316.1c8.1,7.6,7.8,36.4-0.1,42.9C177.6,355.1,177.5,322.2,181.3,316.1z"/>
	<path class="st2" d="M743.5,255c6.1,2.1,11.5,4,16.9,5.8c18.9,6.3,37.8,12.7,56.8,18.7c4.8,1.5,7.6,3.9,8.2,9
		c1.7,13.5,3.9,27,5.5,40.6c2.3,20,3.8,40,6.5,59.9c2.8,19.7-4.7,33.4-21.5,43.2c-61.9,36.1-123.7,72.3-185.5,108.6
		c-5.6,3.3-10.9,4.6-17.1,2.4c-10.2-3.5-20.8-6.2-30.7-10.3c-9.8-4.1-10.3-9.9-1.5-16.2c11.4-8.2,23.1-16.2,35.1-23.5
		c30-18.1,60.8-34.9,90.2-53.9c21.1-13.6,40.5-29.9,60.4-45.2c1.4-1.1,2.1-4.3,1.7-6.3c-8.1-42.7-16.4-85.3-24.7-128
		C743.5,258.6,743.6,257.2,743.5,255z"/>
	<path class="st0" d="M686.2,573.8c1.8-1.4,3.4-2.8,5.2-4c69-49.3,138-98.5,207.1-147.6c3.7-2.6,3.6-5,2.6-8.6
		c-9.2-32.5-18.2-65.1-27.3-97.6c-0.6-2.3-1.1-4.6-2.1-8.5c10.6,2.1,20.2,3.7,29.7,6c4.6,1.1,8.9,3.9,13.5,5.2
		c5.8,1.6,7.4,5.1,7.1,10.7c-0.4,8.6-0.6,17.3,0,26c1.4,23.1,3.5,46.1,5,69.1c1.6,24.1,2.9,48.1,4.3,72.2c0.3,4.9-1.5,8.3-6.2,10.6
		c-34.9,17.5-69.6,35.4-104.5,52.9c-23.9,12-48.2,23.3-72.2,35.2c-3.8,1.9-6.9,2-10.8,0.3C720.8,588.3,704,581.4,686.2,573.8z"/>
	<path class="st2" d="M951.6,334.5c12.3,4.5,23.7,8.4,34.8,12.9c1.9,0.8,3.1,4,4,6.3c9.2,24,12.8,49.4,17.2,74.5
		c5.1,29.1,9.4,58.3,14.1,87.5c2,12.7,4.4,25.3,6.1,38.1c0.3,2-1.5,5.1-3.2,6.3c-10.6,7-21,14.2-32.2,20
		c-41.2,21.6-82.7,42.7-124.1,63.9c-2.1,1.1-5.3,1.8-7.3,0.9c-18.3-7.9-36.4-16.2-54.6-24.3c-0.5-0.2-0.9-0.7-2.4-1.9
		c3.1-2.8,5.5-5.6,8.5-7.6c48-31.6,97.2-61,150.1-84c4.8-2.1,9.5-4.5,13.8-7.4c4.7-3.1,7.1-7.8,6.2-13.5
		c-7.1-43.5-14.1-87-21.5-130.4C958.7,362.4,954.9,349.1,951.6,334.5z"/>
	<path class="st0" d="M1146.7,756c11.3-10.2,22.3-20.3,33.5-30.1c21.1-18.4,42.4-36.4,63.5-54.8c3.8-3.3,6.9-7.3,10.1-11.1
		c6.5-7.7,8.8-15.9,6.5-26.3c-9.8-45.9-21.7-91.1-37.3-135.4c-6.2-17.8-9.8-36.5-14.3-54.9c-2.1-8.8,2.2-13.7,9.9-10.6
		c14.4,5.8,29.8,10.6,39.9,23.9c3.1,4.1,5.8,8.7,8.1,13.4c26.2,52.8,46.5,108,65.8,163.6c1.8,5.2,1.1,9.2-3.2,12.8
		c-20.9,17.7-41.1,36.3-62.7,53.1c-27.9,21.8-56.8,42.4-85.6,62.9C1170.8,769.9,1155.8,766.6,1146.7,756z"/>
	<path class="st0" d="M955.3,679.9c6-4.9,11.3-10.3,17.5-14.1c19.7-12.1,40-23.2,59.7-35.5c17.1-10.6,33.6-22.1,50.1-33.7
		c2.5-1.8,4.6-6.1,4.5-9.3c0-8-0.6-16.1-2.3-23.9c-14.3-64.6-29-129.1-43.5-193.6c-0.2-0.9-0.2-1.9-0.5-3.9
		c5.2,2.1,9.8,3.7,14.3,5.7c12.3,5.5,24.4,11.5,36.9,16.5c6.2,2.5,8.1,6.6,8.9,12.7c1.9,14.9,3.6,30,6.8,44.7
		c6.1,27.3,13.6,54.2,20,81.4c3.5,14.9,6.5,29.9,8.9,44.9c1.7,10.6-0.8,20.4-9.3,28c-25.8,23.1-51.6,46.2-77.3,69.4
		c-4.5,4-9.2,8-12.9,12.7c-2.5,3.2-3.5,7.7-5.1,11.7c-0.4,0.9-0.2,2.4-0.7,2.7c-4.8,2.8-10,8-14.7,7.6
		C994.3,702.1,974,694.3,955.3,679.9z"/>
	<path class="st2" d="M1248.5,800.9c9.1-7.4,17.8-14.5,26.6-21.4c32.4-25.4,63.3-52.3,92-81.8c8.4-8.7,16-18.1,23.9-27.2
		c3.3-3.8,4-7.8,2.6-12.8c-14.2-50.7-28.2-101.5-42.5-152.2c-1.6-5.8-4.5-11.2-6.6-16.8c-0.7-1.9-1.1-4-2-7.3
		c19.4,6.5,38.4,10.7,54.6,21.4c4.7,3.1,8.1,10.2,9.4,16c3.4,15.5,5.5,31.3,8,47c7,44.5,13.8,89,21,133.4c0.6,3.6-0.1,5.3-2.9,7.4
		c-49.4,35-98.8,70.2-148,105.4c-3.1,2.2-5.4,2.4-8.7,0.9C1267.1,808.7,1258.2,805,1248.5,800.9z"/>
	<path class="st2" d="M1101.9,391c13.4,7.8,29,6.8,38.5,19c2.8,3.6,5.6,7.5,7.4,11.6c22.1,53.4,40.3,108.2,56.1,163.8
		c1,3.6,1.2,7.5,1.9,11.3c1.4,7.7-1.1,14-7,18.8c-8.4,6.8-17,13.6-25.9,19.8c-34.4,23.6-68.9,47-103.4,70.4c-4,2.7-8.3,4.9-12.3,7.6
		c-10.1,6.7-20.2,5.8-30-0.5c-2.1-1.4-4-3.9-4.7-6.3c-0.3-1,2.9-3.1,4.6-4.5c10.3-8.4,20.7-16.7,30.9-25.1
		c21.6-17.7,43.5-35.2,64.8-53.5c10.7-9.2,20.3-19.5,30.1-29.7c1.3-1.3,1.2-4.8,0.6-7c-10.4-38.9-21-77.7-31.5-116.5
		c-6.3-23.3-12.2-46.7-18.3-70.1C1103.1,397.6,1102.7,395.1,1101.9,391z"/>
	<path class="st2" d="M1275.3,457.7c5.5,1.4,9.3,1.9,12.7,3.4c14.8,6.4,29.4,13.1,44.2,19.5c5.3,2.3,7.9,6.1,9.3,11.6
		c13.7,54.2,27.6,108.3,41.4,162.5c2,7.8-2.7,13.5-7.3,18.1c-17.5,17.7-34.9,35.7-53.7,52.1c-23.4,20.3-48.2,38.9-72.2,58.5
		c-10.4,8.5-20.8,11.8-33.3,4.2c-7.7-4.7-16.1-8.3-24.9-12.7c12.6-9.3,24.8-17.9,36.7-27c31.9-24.6,63.8-49.1,95.2-74.4
		c11.1-8.9,20.5-19.9,30.5-30.2c1-1,0.9-4.1,0.2-5.6c-19-41.1-38.5-81.9-57-123.2C1288.9,496.5,1282.9,477.9,1275.3,457.7z"/>
	<path class="st0" d="M631.9,210.1c10.3,3.5,19.4,6.4,28.4,9.9c6.6,2.5,12.7,6.1,19.3,8.6c5.5,2,7.3,5.7,7.2,11.1
		c-0.1,4-0.3,8.1,0,12.1c1.4,16.6,2.5,33.3,4.7,49.8c2.9,21.4,5.1,42.8,3.8,64.4c-0.2,2.9-2.5,6.4-4.9,8.2
		c-14.4,10.4-29,20.3-43.6,30.3c-32.5,22.3-62.1,48.1-91.4,74.2c-9.6,8.6-19.3,17.1-28.7,25.9c-3.8,3.5-6.7,4.1-11.6,1.5
		c-9-4.7-18.5-8.2-28.5-12.5c2.1-2.3,4.4-5,7-7.3c53.8-48.1,107.6-96.1,161.2-144.3c1.8-1.6,2.9-5.4,2.4-7.8
		c-7.9-39.2-16.2-78.4-24.3-117.6C632.5,215,632.4,213.4,631.9,210.1z"/>
	<path class="st2" d="M1067.1,725.6c19.7-13.2,38.5-25.6,57.1-38.3c25.4-17.4,50.8-34.8,75.8-52.8c7.3-5.2,13.5-12,19.4-18.8
		c1.9-2.2,2.5-6.8,1.8-9.9c-12.9-63.1-32.8-124-57.5-183.4c-1-2.3-1.8-4.7-3.1-7.9c12.1,2.2,23.6,3.4,33.4,9.9
		c2.9,1.9,5.7,5.5,6.6,8.8c5.5,21.2,10.4,42.5,15.5,63.8c11.1,46.3,22.2,92.7,33.4,139c0.9,3.5,0.3,6.2-1.9,9.4
		c-13.4,19.6-32.4,33.5-49.8,49c-20.5,18.2-41.4,35.8-61.9,54c-4.7,4.2-7.9,4.2-13.6,1.3c-15.1-7.5-30.9-13.7-46.4-20.5
		C1073.5,728.2,1070.9,727.2,1067.1,725.6z"/>
	<path class="st2" d="M885.2,654.6c2.1-1.7,3.4-3.1,5-4c42.4-23.9,84.9-47.7,127.2-71.9c7-4,13-9.9,19.1-15.4c1.5-1.4,2.1-4.8,1.7-7
		c-4.1-24.8-8.2-49.5-13-74.2c-5.8-30.4-12.3-60.6-18.3-91c-2-10-3.7-20.2-5-30.3c-0.8-6.5,0.7-7.5,6.9-5.3c2.1,0.7,4.2,1.8,6.3,2
		c10.8,0.9,14.2,7.6,16.2,17.3c7.5,37.2,16,74.3,23.5,111.6c5.9,29.4,10.8,59,16.1,88.5c0.1,0.4,0.1,0.8,0.1,1.2
		c1.9,8.4-0.7,13.5-8.8,18.2c-42.6,24.4-84.7,49.7-126.8,74.8c-4.2,2.5-7.5,3.1-12.2,1.1c-11.1-4.8-22.4-8.9-33.7-13.3
		C888.4,656.4,887.3,655.7,885.2,654.6z"/>
	<path class="st2" d="M703.1,326.9c-1.9-27.3-3.8-54.5-5.6-81.8c-0.2-2.7,0.8-5.4,1.2-8.1c2.6,0.6,5.5,0.8,7.9,1.9
		c15,6.8,23.2,18.2,26.9,34.6c7.8,34.7,16.9,69.1,25.8,103.6c1.3,4.9,0.5,7.6-3.9,10.4c-32.6,21-65.2,42.2-97.7,63.5
		c-31,20.3-61.2,41.8-94.4,58.4c-5.5,2.8-11.4,5.1-17.3,6.9c-2.1,0.6-5-1.2-7.5-1.9c1.1-2.1,1.7-4.7,3.4-6.2
		c33.8-29.9,67.5-59.9,101.7-89.2c11.6-9.9,24.8-17.9,37.2-26.8c2.9-2.1,5.6-4.6,8.5-6.7c10.9-7.8,12-19.4,12.2-31.2
		c0.2-9.1,0-18.1,0-27.2C702.2,327,702.7,326.9,703.1,326.9z"/>
	<path class="st2" d="M663.2,565.1c-7.4-2.1-15.5-3.9-23.3-6.6c-5.6-2-5.9-5.4-1.5-9.4c1.6-1.5,3.5-2.8,5.4-3.9
		c55.4-32,111-63.8,166.3-96.2c11.9-7,22.6-16.1,33.7-24.4c4.4-3.3,4.7-7.9,4-13c-4.4-31-8.7-62.1-13-93.1c-1-7.2-2.2-14.3-3.3-21.4
		c-1.1-7.3,0.9-8.9,8.2-7.8c11.6,1.8,18.2,8.6,20.9,19.7c4.6,19,9,38,14,56.8c4.2,16.1,9,32.2,13.8,48.2c1.2,3.9,0.6,6.2-3,8.4
		c-64.3,38.2-125,81.8-186,125c-9.3,6.6-20.1,11-30.2,16.3C667.6,564.4,665.7,564.5,663.2,565.1z"/>
	<path class="st2" d="M556.6,297.4c-2.4-14.4-5.2-28.8-7.3-43.3c-2.6-17.9-4.6-35.9-7-53.8c-0.7-5.2-2-10.2-2.8-15.4
		c-0.3-2.1-0.3-5.5,0.7-6.1c1.7-0.9,4.8-0.7,6.6,0.2c8.3,4.2,14.6,9.2,16.9,19.9c6.6,30.9,15,61.3,22.6,92c1.7,7,3.4,14.1,4.3,21.3
		c0.3,2.5-0.7,6.2-2.5,7.8c-46.6,42.5-93.2,84.9-140.1,127c-7.9,7.1-16.9,13-25.6,19.2c-3.1,2.2-12.5,0.4-14-2.9
		c-0.7-1.5-0.1-4.5,1.1-5.9c6-7,12.2-13.9,18.8-20.4c20.6-20.4,41.6-40.4,62.3-60.8c18.4-18.1,36.3-36.7,54.9-54.5
		c7.2-6.9,12.6-13.6,9.2-24.4C555.4,297.3,556,297.4,556.6,297.4z"/>
	<path class="st0" d="M1302.1,819c6.6-6,12-11.7,18.2-16.5c41.9-32.4,84-64.5,126-96.7c1-0.7,1.9-1.4,4.1-3.1
		c2.9,7.2,5.8,13.9,8.1,20.8c1.2,3.4,1.1,7.2,2,10.7c4.4,17.1-4.7,28.2-16.5,38.5c-25.3,22.1-50.3,44.5-75.6,66.7
		c-1.7,1.5-4.7,2.3-7.1,2.3c-13.6-0.1-26.1-4.6-38.1-10.4C1316.3,828,1309.9,823.6,1302.1,819z"/>
	<path class="st2" d="M436.4,472.1c3.7-2.9,6.8-5.5,9.9-7.9c52.6-39.9,101.4-84.1,147.1-131.7c8.6-9,11.6-17.5,8.9-30.6
		c-7.2-34.7-15.2-69.2-26.5-102.8c-0.6-1.9-1.1-3.8-1.6-5.6c12.7-5,25.3,3.8,28.7,13.5c4,11.7,6.5,24,9.1,36.2
		c4.1,19.3,8.2,38.5,11.6,57.9c1.3,7.2,0.9,14.9,0.4,22.3c-0.2,2.6-2.7,5.2-4.7,7.3c-22.5,22.8-45.3,45.3-67.6,68.3
		c-22.9,23.6-45.3,47.6-67.9,71.4c-0.7,0.7-1.4,1.4-2,2.3c-10.5,15.8-19.4,13.9-36.8,5.3C442,476.7,439.7,474.5,436.4,472.1z"/>
	<path class="st0" d="M438.4,405c1.2-1.5,2.3-3,3.6-4.4c23.7-25.5,47.5-51,71.1-76.6c1.5-1.6,2.6-4.6,2.4-6.8
		c-2.7-24.6-6.2-49.1-8.3-73.8c-2.2-25.6-3-51.4-4.4-77c17.8-3.1,29.4,1.3,31.9,20.6c2.2,16.5,4.7,33,5.9,49.6
		c1.8,23.6,2.4,47.4,3.8,71.1c0.4,6.7-1.9,11.1-7.1,15.4c-31.5,26.4-62.7,53.1-94,79.7c-1.3,1.1-2.7,2-4.1,3
		C438.9,405.6,438.7,405.3,438.4,405z"/>
	<path class="st2" d="M1494.3,655.5c-14.8,7.5-29.2,14.8-44.3,22.5c-10.5-54.6-20.7-107.7-31-161.4c6.2-0.9,12-1.6,17.6,3.6
		c8.4,7.8,14.1,16,16.3,28.1c6,32.2,19.7,62,32.8,91.8C1488,644.9,1491,649.4,1494.3,655.5z"/>
	<path class="st2" d="M764.9,604.6c9-4.8,17.9-9.8,27-14.3c47.6-23.6,95.2-47.2,142.9-70.5c5.2-2.6,6.8-5.2,5.9-11.1
		c-1.7-10.9-2.8-21.9-3-32.9c-0.4-22.8,0.4-45.5-0.3-68.3c-0.8-25.1-2.7-50.2-4.1-75.3c-0.1-1.1,0.1-2.3,1.3-3.8
		c0.6,1.2,1.4,2.4,1.8,3.7c11.2,42.8,21.7,85.8,27.2,129.8c1.5,12.2,3.2,24.3,5.4,36.4c0.9,4.7-0.5,7.1-4.4,9.2
		c-30.2,16.5-60.5,32.8-90.5,49.6c-22.6,12.6-44.9,26-67.5,38.6c-8.4,4.7-17.2,9-26.3,12c-4.5,1.5-10.2-0.5-15.3-0.9
		C765,606.1,764.9,605.4,764.9,604.6z"/>
	<path class="st2" d="M1467.4,765.4c2.8,17.5,5.6,33.9,8,50.4c0.2,1.5-1.2,4.2-2.6,4.9c-23.4,12.1-46.9,24-70.5,35.7
		c-8.7,4.4-24.2,0.7-30.4-6.7c-3.7-4.4-3.4-9.2,1.7-11.6c35.3-16.5,61.7-44.4,90-69.9C1464.5,767.4,1465.5,766.8,1467.4,765.4z"/>
	<path class="st0" d="M1564.4,604.8c-11.9,7.6-23.4,14.9-36.2,23.1c-13.2-29.1-26.5-58.3-39.7-87.4c0.5-0.5,0.9-1,1.4-1.5
		c2.2,0.3,4.6,0,6.5,0.9c15.7,7.2,31.4,14.5,46.9,22c2.2,1.1,4.3,3.2,5.4,5.4c5,10.7,9.7,21.6,14.4,32.5
		C1564,601.6,1564.1,603.7,1564.4,604.8z"/>
	<path class="st2" d="M1514.6,629.4c0,4.3-6.8,14.1-10.3,14.9c-4.4,1.1-7.3-1.2-8.9-5.2c-3.2-8-5.8-16.3-9.3-24.2
		c-6.9-15.8-14.5-31.4-21.4-47.3c-4.8-11-9-22.3-13.3-33.6c-0.7-1.9-0.2-4.2-0.2-6.3c2.1,0.1,4.1,0.1,6.2,0.4
		c1.2,0.2,2.2,1.1,3.4,1.2c13.3,0.9,19,10,23.4,21c9.5,24.1,19.3,48.1,28.9,72.2C1513.9,624.9,1514.2,627.6,1514.6,629.4z"/>
	<path class="st2" d="M552.4,417.4c3.9-4,7.9-7.9,11.6-12c23-25.7,45.9-51.4,68.7-77.2c1.3-1.5,1.8-4.5,1.4-6.4
		c-8.3-36.7-16.8-73.3-25.2-109.9c-0.1-0.4-0.3-0.8-0.3-1.2c0.4-3.1-0.1-6.8,1.5-9.2c1.2-1.9,8.1,3,9,6.8
		c2.9,12.5,5.5,25.1,8.3,37.7c5.6,25.9,11,51.9,16.8,77.8c1,4.6,0.2,7.8-3.2,11.1c-27.7,26.7-55.2,53.6-82.7,80.4
		c-1.3,1.3-2.9,2.4-4.4,3.6C553.3,418.5,552.8,417.9,552.4,417.4z"/>
	<path class="st2" d="M1418.3,867.8c21.1-12,41.4-23.6,63.4-36.2c0,13.7,0.2,25.9-0.2,38c-0.1,1.7-2.9,3.7-4.8,5
		c-3.7,2.6-7.4,5.2-11.4,7c-3,1.3-7.1,2.8-9.8,1.8C1443.2,878.8,1431.3,873.4,1418.3,867.8z"/>
	<path class="st2" d="M1571.1,600.3c-2.6-2.1-4.8-3-5.3-4.5c-3.1-8-5.9-16.2-8.4-24.4c-1-3.3,1.4-5.4,4.4-4.3
		c9.8,3.4,19.6,7,29.1,11.1c1.4,0.6,2.6,5.8,1.9,6.3C1585.9,590,1578.6,595,1571.1,600.3z"/>
	<path class="st2" d="M435.1,410.7c-7.6,7.4-13.4,16.8-22.9,22.2c-0.5-0.5-1-1.1-1.5-1.6c7.8-7.3,15.5-14.6,23.3-21.8
		C434.4,409.9,434.8,410.3,435.1,410.7z"/>
	<path class="st2" d="M1485.5,885.2c1.2,2.3,2.8,4.4,3.2,6.8c0.1,0.8-3.2,2.7-5,2.9c-1.1,0.1-3.7-2.3-3.5-3.1
		c0.6-2.4,2.2-4.5,3.4-6.7C1484.2,885.1,1484.8,885.2,1485.5,885.2z"/>
	<path class="st2" d="M221.7,315.4c-5.6-12.6-11.2-25.2-17-38.2c-20,2.8-40.1,5.6-62.1,8.7c7.4-9,13.6-16.6,19.8-24.1
		c2.4-2.9,5.2-5.6,7.6-8.6c9.2-11.6,9.1-18,1.9-30.7c-3.4-6-4.8-13-7.6-21.1c8.7,1.7,16.5,1.9,23,4.8c12.4,5.5,21.5-0.4,32.7-11.6
		c4.1-4.1,7.1-9.2,11.9-13.7c0,1.8,0,3.7,0,5.5c0,11.1,0.5,22.2-0.2,33.2c-0.4,6.8,2,10.1,8,12.5c11.4,4.7,22.3,10.4,30.9,19.5
		c2.6,2.8,4.4,6.3,6.6,9.5c-3.5,1.6-6.9,3.8-10.6,4.7c-7.6,1.7-15.4,2.6-23.2,3.9c-8,1.3-12.2,6.3-13.7,14
		c-2.1,10.5-4.2,20.9-6.3,31.3C222.8,315.1,222.3,315.3,221.7,315.4z"/>
	<path class="st2" d="M1418.4,43.3c0,11.2,0.4,22.5-0.1,33.6c-0.6,12.9,4.4,22.2,15.3,29.3c8.1,5.2,15.4,11.6,22.7,17.8
		c1.8,1.6,2.3,4.8,3.4,7.2c-2.4,1.1-4.8,2.7-7.3,3.1c-17.4,2.8-28.7,15.4-29.3,33.1c-0.2,5.6,0,11.3,0,16.9c-0.5,0.1-1,0.3-1.5,0.4
		c-1.2-3.8-2.4-7.6-3.6-11.4c-1.6-5.2-2.8-10.5-5-15.4c-2.3-5.5-7.1-8.8-13-7.9c-8.1,1.3-16,3.6-23.8,6c-9.3,2.8-18.5,6.2-29.3,9.9
		c3.8-10.8,6.3-20.6,10.5-29.6c6.6-14.3,7.9-28.4,2-43.2c-1.9-4.8,2.1-5.7,5.2-7c3.9-1.7,8.1-3.2,11.7-5.5
		c15.7-10.3,30.7-21.5,40.4-38.3C1417.3,42.7,1417.8,43,1418.4,43.3z"/>
	<path class="st2" d="M1481.1,120.8c-3-2.1-5.9-4.2-8.9-6.3c-6.7-4.5-13.4-8.9-20-13.4c-3.5-2.4-7.2-4.6-10.2-7.5
		c-2.2-2.1-4.7-5.2-4.8-7.9c-0.4-11.6-0.2-23.2,0.6-34.7c0.2-3.4,3.4-6.7,5.2-10c0.8,0.2,1.6,0.4,2.4,0.6c1.4,8.8,3.8,17.6,4,26.5
		c0.2,10.9,3.2,20.1,10.8,27.8c6.2,6.3,12.3,12.8,18.6,18.9c1.4,1.3,3.7,1.7,5.5,2.5C1483.2,118.5,1482.2,119.7,1481.1,120.8z"/>
	<path class="st2" d="M1441.1,181.6c0-5,0-8.9,0-13.3C1446.2,171.3,1446.3,177.2,1441.1,181.6z"/>
	<path class="st2" d="M1437,190.3c4.6,3.9,4.7,8.9,0,13.6C1437,199,1437,195.1,1437,190.3z"/>
	<path class="st2" d="M543.3,736c-1.2,3.6-2.5,7.3-4,11.7c7.1,0,14,0,21.3,0c-4.9,9.7-48.2,27.5-70.9,29.1
		c14.1-9.2,27.1-17.6,40.1-26c-0.2-0.4-0.4-0.8-0.6-1.2c-14.9,5-29.9,9.9-44.8,14.9c15.8-16.7,37.9-20.4,57.3-29.7
		C542.3,735.2,542.8,735.6,543.3,736z"/>
	<path class="st2" d="M519.7,716.9c-3.8,2.5-7.7,4.8-11.4,7.4c-1.1,0.8-1.5,2.4-2.2,3.7c1.6,0.2,3.3,1,4.7,0.5
		c10.3-3.3,20.5-7,30.8-10.2c2.2-0.7,6.3-3.5,6.5,1.2c0.1,2.4-3.8,5.2-6.4,7.2c-1.4,1.1-4.7,0.4-5.6,1.6c-4.3,5.5-9.6,7.4-16.3,6.6
		c-1.9-0.2-4,0.9-5.9,0.8c-3.8-0.3-8-0.2-11.3-1.9c-4-2.1-7.4-5.6-10.4-9c-0.9-1-0.1-5.5,0.5-5.6c8.6-1.8,17.4-3.2,26.1-4.6
		C519.2,715.3,519.4,716.1,519.7,716.9z"/>
	<path class="st2" d="M521.9,787.2c5.3-12.2,7.3-13.7,15.5-12C531.9,787.5,530,789,521.9,787.2z"/>
	<path class="st2" d="M544.5,705.1c-5.4,2.6-10.9,5.3-16.6,8.1C527,705.1,531.9,702.7,544.5,705.1z"/>
	<path class="st2" d="M126,641.6c5.1-1.2,10.3-2.1,15.2-3.8c6-2.1,12.2-4.3,17.6-7.5c8.2-5,6.5-13.5,5.9-21.3
		c-0.3-3.8-0.9-7.6-1.4-11.4c0.7-0.3,1.4-0.6,2.1-0.8c1.7,2.2,3.5,4.4,5.1,6.7c2.2,3.1,4,6.5,6.5,9.4c5.7,6.8,12.3,9.1,21.4,6.2
		c8.8-2.8,18.2-3.6,27.3-5.3c0.4,0.8,0.9,1.6,1.3,2.4c-3.1,2.8-6.2,5.5-9.2,8.4c-1.4,1.4-2.9,2.8-3.8,4.6
		c-5.2,10.2-4.9,11.5,3.2,19.6c4.2,4.2,8.5,8.3,12.8,12.4c-0.3,0.4-0.6,0.8-0.9,1.2c-4.1-2-8-4.3-12.2-6c-3.9-1.6-7.9-3.1-12-3.8
		c-8.2-1.5-10.3,1.3-13,9.3c-2.4,6.9-7.4,12.9-11.2,19.3c-0.7-0.2-1.4-0.5-2.1-0.7c-1.1-5.4-2.3-10.8-3.4-16.2
		c-2.4-12.1-6.4-15.9-18.5-17.7c-10.1-1.5-20.2-3.2-30.3-4.9C126.1,641.5,126,641.6,126,641.6z"/>
	<path class="st0" d="M1746.8,327.7c-2.5,2.3-4.9,4.9-7.8,6.7c-0.9,0.6-3.2-1-4.9-1.6c0.8-1.3,1.2-3.3,2.3-3.9
		c2.8-1.5,5.9-2.4,8.9-3.6C1745.9,326.1,1746.4,326.9,1746.8,327.7z"/>
	<path class="st2" d="M1746.4,759.7c-10-0.1-12.3-1.6-16.1-10.9c-1.9-4.6-4-9.2-5.2-14.1c-0.5-2.3,0.3-5.7,1.9-7.3
		c1.1-1.1,5.1-1,6.7,0.2c7.4,5,14.8,10.3,21.5,16.2c2.5,2.2,5.2,8,4.2,9.4c-2.4,3.1-7,4.5-10.7,6.5
		C1748.2,760,1747.2,759.7,1746.4,759.7z"/>
	<path class="st2" d="M1715.7,743.8c7,4.6,11,10.2,9.3,18.4c-0.3,1.4-1,3.8-1.8,3.9c-8.2,1.5-16.5,2.6-24.8,3.7
		c-0.5,0.1-1-0.6-2.3-1.4C1702.7,760.1,1709.3,751.8,1715.7,743.8z"/>
	<path class="st2" d="M1760.7,700.8c-0.4,7.2-0.3,13.6-1.4,19.8c-0.9,5-4,5.6-7.7,1.9c-3-3-5.5-6.4-8.7-10.2
		C1747.7,707.7,1751,701.5,1760.7,700.8z"/>
	<path class="st2" d="M1756.1,778.5c-5.4,0.1-6.5-1.1-8.4-9.4C1754.2,769,1754.7,773.7,1756.1,778.5z"/>
	<path class="st2" d="M1723,722.1c-2.2-1.5-4.5-2.9-7.1-4.7c1.7-1.9,2.8-3.2,4.5-5.2c1.6,3.1,2.9,5.6,4.2,8.1
		C1724,720.9,1723.5,721.5,1723,722.1z"/>
	<path class="st2" d="M1772.2,757.5c-2.3-1.3-4.6-2.7-7.6-4.4c1.8-1.9,3.1-3.3,4.9-5.1c1.5,3.1,2.7,5.4,3.9,7.8
		C1772.9,756.4,1772.6,757,1772.2,757.5z"/>
	<path class="st2" d="M1042.8,249.8c-4.5-8.6-9.4-17-13.4-25.8c-2.8-6.1-4.4-7.5-10.4-4.9c-5.1,2.3-9.9,5.2-14.9,7.9
		c-2.1,1.1-4.1,2.2-6.2,3.4c-3.7-7.7,1.3-15.6,16.9-26.1c-3-2.1-5.8-3.8-8.2-5.9c-2.1-1.8-4.5-3.8-5.6-6.2
		c-1.5-3.4-3.8-8.4-2.5-10.7c1.4-2.3,6.8-2.8,10.5-3.1c4-0.4,8,0.4,12,0.4c6.6,0.1,10.8-3.4,13.6-9.2c2.5-5.2,5.6-10.1,9.7-14.9
		c0,6.4,0.8,12.9-0.2,19.1c-2.1,14.2-0.2,18.3,12.5,24.3c3.8,1.8,7.6,4,10.5,6.9c2,2,4.2,6.1,3.4,8.2c-1,2.5-4.8,4.6-7.8,5.5
		c-3.4,1-7.2,0.6-10.8,0.8c-4.1,0.2-6.3,2.4-4.5,6.3c3.7,8.3-0.7,15.5-2.1,23.1C1044.6,249.2,1043.7,249.5,1042.8,249.8z"/>
</g>
</svg>
